<svg width="20" height="20" viewBox="0 0 20 20" fill="none" xmlns="http://www.w3.org/2000/svg">
<path d="M19.1663 9.16699H17.4997V7.50033C17.4997 7.27931 17.4119 7.06735 17.2556 6.91107C17.0993 6.75479 16.8874 6.66699 16.6663 6.66699C16.4453 6.66699 16.2334 6.75479 16.0771 6.91107C15.9208 7.06735 15.833 7.27931 15.833 7.50033V9.16699H14.1663C13.9453 9.16699 13.7334 9.25479 13.5771 9.41107C13.4208 9.56735 13.333 9.77931 13.333 10.0003C13.333 10.2213 13.4208 10.4333 13.5771 10.5896C13.7334 10.7459 13.9453 10.8337 14.1663 10.8337H15.833V12.5003C15.833 12.7213 15.9208 12.9333 16.0771 13.0896C16.2334 13.2459 16.4453 13.3337 16.6663 13.3337C16.8874 13.3337 17.0993 13.2459 17.2556 13.0896C17.4119 12.9333 17.4997 12.7213 17.4997 12.5003V10.8337H19.1663C19.3874 10.8337 19.5993 10.7459 19.7556 10.5896C19.9119 10.4333 19.9997 10.2213 19.9997 10.0003C19.9997 9.77931 19.9119 9.56735 19.7556 9.41107C19.5993 9.25479 19.3874 9.16699 19.1663 9.16699Z" fill="#02A7FD"/>
<path d="M7.38086 10C8.36976 10 9.33646 9.70675 10.1587 9.15735C10.981 8.60794 11.6218 7.82705 12.0003 6.91342C12.3787 5.99979 12.4777 4.99445 12.2848 4.02455C12.0919 3.05465 11.6157 2.16373 10.9164 1.46447C10.2171 0.765206 9.32621 0.289002 8.35631 0.0960758C7.3864 -0.0968502 6.38107 0.00216643 5.46744 0.380605C4.55381 0.759043 3.77292 1.3999 3.22351 2.22215C2.6741 3.0444 2.38086 4.01109 2.38086 5C2.38218 6.32568 2.90939 7.59668 3.84679 8.53407C4.78418 9.47147 6.05518 9.99868 7.38086 10ZM7.38086 1.66667C8.04013 1.66667 8.6846 1.86217 9.23276 2.22844C9.78092 2.59471 10.2082 3.1153 10.4605 3.72439C10.7127 4.33348 10.7788 5.0037 10.6501 5.6503C10.5215 6.29691 10.2041 6.89085 9.73788 7.35702C9.27171 7.8232 8.67776 8.14067 8.03116 8.26929C7.38456 8.3979 6.71433 8.33189 6.10525 8.0796C5.49616 7.82731 4.97556 7.40006 4.60929 6.8519C4.24302 6.30374 4.04753 5.65927 4.04753 5C4.04753 4.11595 4.39872 3.2681 5.02384 2.64298C5.64896 2.01786 6.4968 1.66667 7.38086 1.66667Z" fill="#02A7FD"/>
<path d="M7.61905 11.9053C5.59904 11.9074 3.66241 12.6757 2.23404 14.0416C0.805679 15.4074 0.00224072 17.2594 0 19.191C0 19.4057 0.089191 19.6116 0.247952 19.7634C0.406713 19.9152 0.622039 20.0005 0.846561 20.0005C1.07108 20.0005 1.28641 19.9152 1.44517 19.7634C1.60393 19.6116 1.69312 19.4057 1.69312 19.191C1.69312 17.6881 2.31746 16.2468 3.42879 15.184C4.54011 14.1213 6.04739 13.5243 7.61905 13.5243C9.1907 13.5243 10.698 14.1213 11.8093 15.184C12.9206 16.2468 13.545 17.6881 13.545 19.191C13.545 19.4057 13.6342 19.6116 13.7929 19.7634C13.9517 19.9152 14.167 20.0005 14.3915 20.0005C14.6161 20.0005 14.8314 19.9152 14.9901 19.7634C15.1489 19.6116 15.2381 19.4057 15.2381 19.191C15.2359 17.2594 14.4324 15.4074 13.0041 14.0416C11.5757 12.6757 9.63906 11.9074 7.61905 11.9053Z" fill="#02A7FD"/>
</svg>
