<svg width="24" height="24" viewBox="0 0 24 24" fill="none" xmlns="http://www.w3.org/2000/svg">
<g clip-path="url(#clip0_305_9197)">
<path d="M22.5545 13.6622L20.6545 6.82618C20.0976 4.82351 18.8872 3.06447 17.2158 1.82865C15.5444 0.592832 13.5079 -0.0488349 11.43 0.00564524C9.35201 0.0601253 7.3519 0.807625 5.74756 2.12933C4.14321 3.45103 3.0267 5.27108 2.57549 7.30018L1.10449 13.9152C0.942009 14.6461 0.945766 15.4042 1.11549 16.1335C1.28521 16.8628 1.61656 17.5446 2.08508 18.1287C2.55359 18.7128 3.14731 19.1842 3.8224 19.5081C4.4975 19.832 5.23672 20.0002 5.98549 20.0002H7.09949C7.32901 21.1305 7.94222 22.1467 8.83524 22.8766C9.72825 23.6065 10.8461 24.0052 11.9995 24.0052C13.1528 24.0052 14.2707 23.6065 15.1638 22.8766C16.0568 22.1467 16.67 21.1305 16.8995 20.0002H17.7375C18.5083 20.0002 19.2687 19.8221 19.9592 19.4796C20.6498 19.1372 21.2518 18.6397 21.7183 18.026C22.1848 17.4124 22.5031 16.6992 22.6483 15.9422C22.7935 15.1852 22.7618 14.4049 22.5555 13.6622H22.5545ZM11.9995 22.0002C11.3812 21.9976 10.7789 21.8041 10.2748 21.4461C9.77073 21.0881 9.38958 20.5831 9.18349 20.0002H14.8155C14.6094 20.5831 14.2283 21.0881 13.7242 21.4461C13.2201 21.8041 12.6178 21.9976 11.9995 22.0002ZM20.1255 16.8152C19.8468 17.1848 19.4858 17.4844 19.0711 17.6901C18.6564 17.8958 18.1994 18.002 17.7365 18.0002H5.98549C5.53628 18.0001 5.09281 17.8991 4.68783 17.7048C4.28286 17.5104 3.9267 17.2275 3.64566 16.8771C3.36461 16.5266 3.16585 16.1176 3.06406 15.68C2.96226 15.2425 2.96001 14.7877 3.05749 14.3492L4.52749 7.73318C4.88185 6.13939 5.7588 4.70978 7.01895 3.67163C8.2791 2.63347 9.85012 2.04635 11.4823 2.00359C13.1144 1.96083 14.714 2.4649 16.0268 3.43565C17.3396 4.4064 18.2902 5.78813 18.7275 7.36118L20.6275 14.1972C20.753 14.6426 20.773 15.1111 20.6859 15.5655C20.5988 16.02 20.4069 16.4478 20.1255 16.8152Z" fill="#5A5A5C"/>
</g>
<defs>
<clipPath id="clip0_305_9197">
<rect width="24" height="24" fill="white"/>
</clipPath>
</defs>
</svg>
