<svg width="20" height="20" viewBox="0 0 20 20" fill="none" xmlns="http://www.w3.org/2000/svg">
<g clip-path="url(#clip0_305_11495)">
<path d="M10.833 0.833688C10.833 0.612674 10.9208 0.400712 11.0771 0.244432C11.2333 0.0881516 11.4453 0.000354244 11.6663 0.000354244C13.8757 0.00278058 15.9939 0.881534 17.5562 2.44381C19.1185 4.00609 19.9972 6.1243 19.9996 8.33369C19.9996 8.5547 19.9118 8.76666 19.7556 8.92294C19.5993 9.07922 19.3873 9.16702 19.1663 9.16702C18.9453 9.16702 18.7333 9.07922 18.577 8.92294C18.4208 8.76666 18.333 8.5547 18.333 8.33369C18.331 6.56619 17.628 4.87165 16.3782 3.62183C15.1283 2.37202 13.4338 1.66901 11.6663 1.66702C11.4453 1.66702 11.2333 1.57922 11.0771 1.42294C10.9208 1.26666 10.833 1.0547 10.833 0.833688ZM11.6663 5.00035C12.5504 5.00035 13.3982 5.35154 14.0233 5.97667C14.6485 6.60179 14.9996 7.44963 14.9996 8.33369C14.9996 8.5547 15.0874 8.76666 15.2437 8.92294C15.4 9.07922 15.612 9.16702 15.833 9.16702C16.054 9.16702 16.266 9.07922 16.4222 8.92294C16.5785 8.76666 16.6663 8.5547 16.6663 8.33369C16.665 7.00801 16.1378 5.73701 15.2004 4.79962C14.263 3.86222 12.992 3.33501 11.6663 3.33369C11.4453 3.33369 11.2333 3.42149 11.0771 3.57777C10.9208 3.73405 10.833 3.94601 10.833 4.16702C10.833 4.38804 10.9208 4.6 11.0771 4.75628C11.2333 4.91256 11.4453 5.00035 11.6663 5.00035ZM19.2438 13.9495C19.7267 14.4338 19.9979 15.0898 19.9979 15.7737C19.9979 16.4576 19.7267 17.1136 19.2438 17.5979L18.4855 18.472C11.6605 25.0062 -4.94783 8.40202 1.48549 1.55535L2.44383 0.722021C2.92863 0.252585 3.57877 -0.00710486 4.25358 -0.000866721C4.92839 0.00537142 5.57361 0.277036 6.04966 0.755354C6.07549 0.781188 7.61965 2.78702 7.61965 2.78702C8.07784 3.26838 8.33291 3.9078 8.33182 4.57236C8.33073 5.23692 8.07358 5.8755 7.61382 6.35535L6.64882 7.56869C7.18286 8.86628 7.96804 10.0456 8.95924 11.0388C9.95045 12.032 11.1281 12.8195 12.4246 13.3562L13.6455 12.3854C14.1254 11.926 14.7639 11.6691 15.4282 11.6682C16.0926 11.6672 16.7318 11.9223 17.213 12.3804C17.213 12.3804 19.218 13.9237 19.2438 13.9495ZM18.0971 15.1612C18.0971 15.1612 16.103 13.627 16.0771 13.6012C15.9055 13.431 15.6735 13.3355 15.4317 13.3355C15.19 13.3355 14.958 13.431 14.7863 13.6012C14.7638 13.6245 13.083 14.9637 13.083 14.9637C12.9697 15.0538 12.8349 15.1129 12.6919 15.1352C12.5488 15.1574 12.4024 15.1419 12.2671 15.0904C10.5875 14.465 9.06193 13.486 7.79368 12.2196C6.52543 10.9532 5.54416 9.42905 4.91632 7.75036C4.86065 7.61323 4.84251 7.46376 4.86374 7.3173C4.88498 7.17085 4.94483 7.03268 5.03716 6.91702C5.03716 6.91702 6.37632 5.23535 6.39882 5.21369C6.56904 5.04201 6.66455 4.81004 6.66455 4.56827C6.66455 4.32651 6.56904 4.09453 6.39882 3.92285C6.37299 3.89785 4.83882 1.90202 4.83882 1.90202C4.66457 1.74578 4.43716 1.6621 4.2032 1.66814C3.96923 1.67419 3.74644 1.76949 3.58049 1.93452L2.62216 2.76785C-2.0795 8.42119 12.313 22.0154 17.2671 17.3337L18.0263 16.4587C18.2042 16.2939 18.3111 16.0664 18.3243 15.8243C18.3375 15.5821 18.256 15.3444 18.0971 15.1612Z" fill="#FF696D"/>
</g>
<defs>
<clipPath id="clip0_305_11495">
<rect width="20" height="20" fill="white"/>
</clipPath>
</defs>
</svg>
