<svg width="69" height="67" viewBox="0 0 69 67" fill="none" xmlns="http://www.w3.org/2000/svg">
<path d="M67.75 33.5C67.75 51.2768 52.8984 65.75 34.5 65.75C16.1016 65.75 1.25 51.2768 1.25 33.5C1.25 15.7232 16.1016 1.25 34.5 1.25C52.8984 1.25 67.75 15.7232 67.75 33.5Z" stroke="#EB2F2F" stroke-width="2.5"/>
<path d="M43.9541 40.4534L37.3083 34.0002L43.9541 27.547C44.3947 27.1191 44.6423 26.5388 44.6423 25.9337C44.6423 25.3286 44.3947 24.7483 43.9541 24.3204C43.5134 23.8925 42.9158 23.6522 42.2926 23.6522C41.6695 23.6522 41.0718 23.8925 40.6312 24.3204L33.9854 30.7736L27.3395 24.3204C26.8989 23.8925 26.3012 23.6522 25.6781 23.6522C25.0549 23.6522 24.4573 23.8925 24.0166 24.3204C23.576 24.7483 23.3284 25.3286 23.3284 25.9337C23.3284 26.5388 23.576 27.1191 24.0166 27.547L30.6624 34.0002L24.0166 40.4534C23.576 40.8812 23.3284 41.4616 23.3284 42.0667C23.3284 42.6718 23.576 43.2521 24.0166 43.68C24.4573 44.1078 25.0549 44.3482 25.6781 44.3482C26.3012 44.3482 26.8989 44.1078 27.3395 43.68L33.9854 37.2268L40.6312 43.68C41.0718 44.1078 41.6695 44.3482 42.2926 44.3482C42.9158 44.3482 43.5134 44.1078 43.9541 43.68C44.3947 43.2521 44.6423 42.6718 44.6423 42.0667C44.6423 41.4616 44.3947 40.8812 43.9541 40.4534Z" fill="#EB2F2F"/>
</svg>
