<svg width="67" height="67" viewBox="0 0 67 67" fill="none" xmlns="http://www.w3.org/2000/svg">
<circle cx="33.5" cy="33.5" r="32.25" stroke="#0398E5" stroke-width="2.5"/>
<g clip-path="url(#clip0_834_4357)">
<path d="M49.75 30.749H47.25V28.249C47.25 27.5587 46.6903 26.999 46 26.999C45.3096 26.999 44.75 27.5587 44.75 28.249V30.749H42.25C41.5596 30.749 41 31.3086 41 31.999C41 32.6893 41.5596 33.249 42.25 33.249H44.75V35.749C44.75 36.4393 45.3096 36.999 46 36.999C46.6903 36.999 47.25 36.4393 47.25 35.749V33.249H49.75C50.4403 33.249 51 32.6893 51 31.999C51 31.3086 50.4403 30.749 49.75 30.749Z" fill="#0398E5"/>
<path d="M32.25 32C36.3921 32 39.75 28.6421 39.75 24.5C39.75 20.3579 36.3921 17 32.25 17C28.1079 17 24.75 20.3579 24.75 24.5C24.75 28.6421 28.1079 32 32.25 32Z" fill="#0398E5"/>
<path d="M32.25 34.499C26.0396 34.5059 21.0069 39.5387 21 45.749C21 46.4394 21.5596 46.999 22.25 46.999H42.25C42.9403 46.999 43.4999 46.4394 43.4999 45.749C43.4931 39.5387 38.4604 34.5059 32.25 34.499Z" fill="#0398E5"/>
</g>
<defs>
<clipPath id="clip0_834_4357">
<rect width="30" height="30" fill="white" transform="translate(21 17)"/>
</clipPath>
</defs>
</svg>
