<svg width="256" height="219" viewBox="0 0 256 219" fill="none" xmlns="http://www.w3.org/2000/svg">
<ellipse cx="134.49" cy="110.727" rx="53.4899" ry="53.5087" fill="#02A7FD"/>
<path d="M153.612 98.5547L129.274 122.9L117.105 110.728" stroke="white" stroke-width="5.67982" stroke-linecap="round" stroke-linejoin="round"/>
<path d="M175 31.8246C175 31.8246 200.314 19.6777 206.057 26.0444C209.212 29.542 211.594 33.7785 208.769 37.2204C206.591 39.8736 203.446 40.2118 199.761 39.5885C191.959 38.2683 192.077 27.8297 195.209 21.3648C199.534 12.4387 222.489 17.7073 222.489 17.7073" stroke="#EEEEEE" stroke-width="4.96797"/>
<path d="M39.6286 44.4679C44.4735 52.8595 61.8511 51.8967 52.4916 57.3004C43.1321 62.7041 31.6172 60.282 26.7724 51.8905C21.9275 43.499 25.5874 32.3157 34.9469 26.912C44.3064 21.5083 34.7838 36.0764 39.6286 44.4679Z" fill="#02A7FD"/>
<path d="M184.787 180L189.23 193.217H203.606L191.975 201.385L196.418 214.602L184.787 206.434L173.157 214.602L177.599 201.385L165.968 193.217H180.345L184.787 180Z" fill="#02A7FD"/>
<path d="M217.475 121.762L219.402 104.839L232.836 113.51L234.367 99.3141L246.621 107.908L250.437 92.5613" stroke="#02A7FD" stroke-width="4.13998"/>
<ellipse cx="30.085" cy="125.447" rx="13.1915" ry="13.8511" fill="#EEEEEE"/>
<rect width="11.8734" height="19.5207" transform="matrix(0.929672 0.368388 -0.380606 0.924737 58.834 193.936)" fill="#E9FBF3"/>
<path d="M118.468 0.787109L121.134 8.99069L129.759 8.99069L122.781 14.0608L125.446 22.2644L118.468 17.1943L111.49 22.2644L114.155 14.0608L107.177 8.99069L115.803 8.99069L118.468 0.787109Z" fill="#E9FBF3"/>
<path d="M3.32492 186.426C3.32492 186.426 1.39848 175.617 6.92718 173.463C11.5719 171.653 15.5986 179.657 19.415 176.755C23.2808 173.816 13.6306 169.16 16.7734 165.644C20.081 161.945 30.7021 165.644 30.7021 165.644" stroke="#02A7FD" stroke-width="4.96797"/>
</svg>
