<svg width="17" height="18" viewBox="0 0 17 18" fill="none" xmlns="http://www.w3.org/2000/svg">
<path d="M9.10733 8.0338L9.15253 7.98214L8.86437 7.65286L3.03861 0.995774C2.46012 0.334742 1.49005 0.334741 0.911562 0.995774C0.367333 1.61766 0.367301 2.60295 0.911466 3.22488C0.911497 3.22491 0.91153 3.22495 0.911562 3.22499L5.76047 8.7691L0.908527 14.3134C0.364267 14.9353 0.364267 15.9207 0.908527 16.5426C1.48701 17.2037 2.45709 17.2037 3.03557 16.5426L8.86134 9.88554C9.30501 9.37855 9.38701 8.63005 9.10733 8.0338Z" fill="black" stroke="black"/>
<path d="M7.32236 9.50478L7.27715 9.55643L7.56532 9.88572L13.3911 16.5428C13.9696 17.2038 14.9396 17.2038 15.5181 16.5428C16.0624 15.9209 16.0624 14.9356 15.5182 14.3137C15.5182 14.3137 15.5182 14.3136 15.5181 14.3136L10.6692 8.76947L15.5212 3.22516C16.0654 2.60324 16.0654 1.61788 15.5212 0.99595C14.9427 0.334917 13.9726 0.334917 13.3941 0.99595L7.56835 7.65304C7.12468 8.16002 7.04268 8.90852 7.32236 9.50478Z" fill="black" stroke="black"/>
</svg>
