<svg width="14" height="14" viewBox="0 0 14 14" fill="none" xmlns="http://www.w3.org/2000/svg">
<path d="M13.2248 2.56376C13.7701 2.01844 13.7701 1.13729 13.2248 0.59196C12.6794 0.046633 11.7983 0.0466326 11.253 0.59196L6.81641 5.02852L2.37985 0.59196C1.83452 0.0466326 0.953367 0.046633 0.40804 0.59196C-0.137288 1.13729 -0.137287 2.01844 0.40804 2.56376L4.8446 7.00033L0.408039 11.4369C-0.137288 11.9822 -0.137287 12.8634 0.40804 13.4087C0.953368 13.954 1.83452 13.954 2.37984 13.4087L6.81641 8.97213L11.253 13.4087C11.7983 13.954 12.6794 13.954 13.2248 13.4087C13.7701 12.8634 13.7701 11.9822 13.2248 11.4369L8.78821 7.00033L13.2248 2.56376Z" fill="#E11111"/>
</svg>
