<svg width="24" height="25" viewBox="0 0 24 25" fill="none" xmlns="http://www.w3.org/2000/svg">
<g clip-path="url(#clip0_173_6586)">
<path d="M12 0.5C9.62663 0.5 7.30655 1.20379 5.33316 2.52236C3.35977 3.84094 1.8217 5.71509 0.913451 7.9078C0.00519943 10.1005 -0.232441 12.5133 0.230582 14.8411C0.693605 17.1689 1.83649 19.3071 3.51472 20.9853C5.19295 22.6635 7.33115 23.8064 9.65892 24.2694C11.9867 24.7324 14.3995 24.4948 16.5922 23.5866C18.7849 22.6783 20.6591 21.1402 21.9776 19.1668C23.2962 17.1935 24 14.8734 24 12.5C23.9966 9.31846 22.7312 6.26821 20.4815 4.01852C18.2318 1.76883 15.1815 0.503441 12 0.5ZM20.647 7.5H17.426C16.705 5.82899 15.7556 4.26609 14.605 2.856C17.1515 3.54893 19.3223 5.21747 20.647 7.5ZM16.5 12.5C16.4918 13.5181 16.3314 14.5293 16.024 15.5H7.97601C7.66866 14.5293 7.50821 13.5181 7.50001 12.5C7.50821 11.4819 7.66866 10.4707 7.97601 9.5H16.024C16.3314 10.4707 16.4918 11.4819 16.5 12.5ZM8.77801 17.5H15.222C14.3732 19.1757 13.2882 20.7208 12 22.088C10.7114 20.7212 9.62625 19.176 8.77801 17.5ZM8.77801 7.5C9.62677 5.82427 10.7119 4.27916 12 2.912C13.2886 4.27877 14.3738 5.82396 15.222 7.5H8.77801ZM9.40001 2.856C8.24766 4.26578 7.29659 5.8287 6.57401 7.5H3.35301C4.67886 5.21643 6.85166 3.54775 9.40001 2.856ZM2.46101 9.5H5.90001C5.64076 10.4791 5.50636 11.4871 5.50001 12.5C5.50636 13.5129 5.64076 14.5209 5.90001 15.5H2.46101C1.84635 13.5472 1.84635 11.4528 2.46101 9.5ZM3.35301 17.5H6.57401C7.29659 19.1713 8.24766 20.7342 9.40001 22.144C6.85166 21.4522 4.67886 19.7836 3.35301 17.5ZM14.605 22.144C15.7556 20.7339 16.705 19.171 17.426 17.5H20.647C19.3223 19.7825 17.1515 21.4511 14.605 22.144ZM21.539 15.5H18.1C18.3592 14.5209 18.4936 13.5129 18.5 12.5C18.4936 11.4871 18.3592 10.4791 18.1 9.5H21.537C22.1517 11.4528 22.1517 13.5472 21.537 15.5H21.539Z" fill="#02A7FD"/>
</g>
<defs>
<clipPath id="clip0_173_6586">
<rect width="24" height="24" fill="white" transform="translate(0 0.5)"/>
</clipPath>
</defs>
</svg>
