<svg width="25" height="26" viewBox="0 0 25 26" fill="none" xmlns="http://www.w3.org/2000/svg">
<path fill-rule="evenodd" clip-rule="evenodd" d="M1 14.6652C1 8.09567 1.71633 8.55417 5.57217 4.97833C7.25917 3.62033 9.88417 1 12.151 1C14.4167 1 17.0942 3.6075 18.7963 4.97833C22.6522 8.55417 23.3673 8.09567 23.3673 14.6652C23.3673 24.3333 21.0818 24.3333 12.1837 24.3333C3.2855 24.3333 1 24.3333 1 14.6652Z" stroke="#949494" stroke-width="1.5" stroke-linecap="round" stroke-linejoin="round"/>
<path d="M8.79199 16.9915C8.51585 16.9915 8.29199 17.2154 8.29199 17.4915C8.29199 17.7677 8.51585 17.9915 8.79199 17.9915H15.5762C15.8523 17.9915 16.0762 17.7677 16.0762 17.4915C16.0762 17.2154 15.8523 16.9915 15.5762 16.9915H8.79199Z" stroke="#949494" stroke-linecap="round" stroke-linejoin="round"/>
</svg>
