<svg width="201" height="59" viewBox="0 0 201 59" fill="none" xmlns="http://www.w3.org/2000/svg">
<line x1="77" y1="57.5" x2="201" y2="57.5" stroke="white" stroke-width="3"/>
<path d="M20.16 20.472C24.144 21.48 27.168 24.936 27.168 29.592C27.168 35.352 22.992 39 14.928 39H2.88V5.4H14.448C17.712 5.4 20.256 6.216 22.032 7.8C23.808 9.384 24.72 11.4 24.72 13.752C24.72 16.92 23.184 19.176 20.16 20.472ZM13.872 10.92H9.168V18.744H13.872C16.8 18.744 18.48 17.16 18.48 14.664C18.48 12.312 16.8 10.92 13.872 10.92ZM9.168 33.48H14.64C18.816 33.48 20.88 31.848 20.88 28.536C20.88 25.512 18.864 23.592 14.496 23.592H9.168V33.48ZM56.0441 30.984L59.8361 35.4C56.7161 38.136 52.9241 39.48 48.4121 39.48C43.6601 39.48 39.5801 37.848 36.1241 34.584C32.7161 31.272 30.9881 27.144 30.9881 22.2C30.9881 17.256 32.7161 13.128 36.1241 9.864C39.5801 6.552 43.6601 4.92 48.4121 4.92C52.8281 4.92 56.5721 6.264 59.6441 8.904L55.8521 13.224C53.6921 11.64 51.3401 10.824 48.7961 10.824C45.6281 10.824 42.9401 11.928 40.7801 14.088C38.6201 16.248 37.5161 18.936 37.5161 22.2C37.5161 25.464 38.6201 28.2 40.7801 30.36C42.9401 32.52 45.6281 33.576 48.7961 33.576C51.4841 33.576 53.8841 32.712 56.0441 30.984ZM108.596 39H101.876L99.2359 32.52H83.4439L80.8039 39H74.1319L88.2439 5.4H94.4359L108.596 39ZM91.3639 13.128L85.5559 27.336H97.1239L91.3639 13.128ZM126.299 13.56C129.419 13.56 132.251 14.712 134.795 17.016C137.339 19.272 138.635 22.44 138.635 26.52C138.635 30.6 137.339 33.768 134.795 36.072C132.251 38.328 129.419 39.48 126.299 39.48C122.459 39.48 119.627 37.416 118.619 35.448H118.283V48.12H112.091V33.24H112.139V14.04H118.283V17.592H118.619C119.627 15.624 122.459 13.56 126.299 13.56ZM120.299 32.04C121.787 33.336 123.467 34.008 125.435 34.008C127.403 34.008 129.083 33.336 130.475 32.04C131.915 30.744 132.635 28.872 132.635 26.52C132.635 24.168 131.915 22.296 130.475 21C129.083 19.704 127.403 19.032 125.435 19.032C123.467 19.032 121.787 19.704 120.299 21C118.859 22.296 118.139 24.168 118.139 26.52C118.139 28.872 118.859 30.744 120.299 32.04ZM156.721 13.56C159.841 13.56 162.673 14.712 165.217 17.016C167.761 19.272 169.057 22.44 169.057 26.52C169.057 30.6 167.761 33.768 165.217 36.072C162.673 38.328 159.841 39.48 156.721 39.48C152.881 39.48 150.049 37.416 149.041 35.448H148.705V48.12H142.513V33.24H142.561V14.04H148.705V17.592H149.041C150.049 15.624 152.881 13.56 156.721 13.56ZM150.721 32.04C152.209 33.336 153.889 34.008 155.857 34.008C157.825 34.008 159.505 33.336 160.897 32.04C162.337 30.744 163.057 28.872 163.057 26.52C163.057 24.168 162.337 22.296 160.897 21C159.505 19.704 157.825 19.032 155.857 19.032C153.889 19.032 152.209 19.704 150.721 21C149.281 22.296 148.561 24.168 148.561 26.52C148.561 28.872 149.281 30.744 150.721 32.04ZM184.071 39.48C180.951 39.48 178.071 38.328 175.527 36.072C172.983 33.768 171.735 30.6 171.735 26.52C171.735 22.44 172.983 19.272 175.527 17.016C178.071 14.712 180.951 13.56 184.071 13.56C187.911 13.56 190.743 15.624 191.751 17.592H192.087V14.04H198.231V39H192.087V35.448H191.751C190.743 37.416 187.911 39.48 184.071 39.48ZM179.847 32.04C181.287 33.336 182.967 34.008 184.935 34.008C186.903 34.008 188.583 33.336 190.023 32.04C191.511 30.744 192.231 28.872 192.231 26.52C192.231 24.168 191.511 22.296 190.023 21C188.583 19.704 186.903 19.032 184.935 19.032C182.967 19.032 181.287 19.704 179.847 21C178.455 22.296 177.735 24.168 177.735 26.52C177.735 28.872 178.455 30.744 179.847 32.04Z" fill="white"/>
</svg>
