<svg width="15" height="14" viewBox="0 0 15 14" fill="none" xmlns="http://www.w3.org/2000/svg">
<g clip-path="url(#clip0_0_990)">
<path d="M1.07796 6.38203C0.752442 6.72383 0.752442 7.27891 1.07796 7.6207L4.4113 11.1207C4.73682 11.4625 5.26546 11.4625 5.59098 11.1207C5.9165 10.7789 5.9165 10.2238 5.59098 9.88203L3.67952 7.875L9.1665 7.875C9.62744 7.875 9.99984 7.48398 9.99984 7C9.99984 6.51602 9.62744 6.125 9.1665 6.125L3.67952 6.125L5.59098 4.11797C5.9165 3.77617 5.9165 3.22109 5.59098 2.8793C5.26546 2.5375 4.73682 2.5375 4.4113 2.8793L1.07796 6.3793L1.07796 6.38203ZM9.99984 11.375C9.5389 11.375 9.1665 11.766 9.1665 12.25C9.1665 12.734 9.5389 13.125 9.99984 13.125L11.6665 13.125C13.0467 13.125 14.1665 11.9492 14.1665 10.5L14.1665 3.5C14.1665 2.05078 13.0467 0.875001 11.6665 0.875001L9.99984 0.875001C9.5389 0.875001 9.1665 1.26602 9.1665 1.75C9.1665 2.23398 9.5389 2.625 9.99984 2.625L11.6665 2.625C12.1274 2.625 12.4998 3.01602 12.4998 3.5L12.4998 10.5C12.4998 10.984 12.1274 11.375 11.6665 11.375L9.99984 11.375Z" fill="#0398E5"/>
</g>
<defs>
<clipPath id="clip0_0_990">
<rect width="15" height="14" fill="white" transform="translate(15 14) rotate(-180)"/>
</clipPath>
</defs>
</svg>
