<svg width="190" height="163" viewBox="0 0 190 163" fill="none" xmlns="http://www.w3.org/2000/svg">
<path d="M93.8532 53.9956C99.1929 53.9956 104.413 52.4122 108.852 49.4456C113.292 46.4791 116.753 42.2626 118.796 37.3294C120.839 32.3962 121.374 26.9678 120.332 21.7308C119.291 16.4937 116.719 11.6832 112.944 7.90748C109.168 4.13177 104.357 1.56048 99.1203 0.518767C93.8832 -0.522948 88.4548 0.0116978 83.5216 2.0551C78.5884 4.09849 74.372 7.55887 71.4054 11.9986C68.4389 16.4384 66.8555 21.6581 66.8555 26.9978C66.8626 34.1559 69.7093 41.0187 74.7708 46.0802C79.8323 51.1417 86.6952 53.9884 93.8532 53.9956ZM93.8532 8.99927C97.413 8.99927 100.893 10.0549 103.853 12.0326C106.813 14.0103 109.119 16.8213 110.482 20.1101C111.844 23.3989 112.2 27.0178 111.506 30.5091C110.811 34.0005 109.097 37.2075 106.58 39.7247C104.063 42.2418 100.856 43.956 97.3646 44.6505C93.8732 45.345 90.2543 44.9885 86.9655 43.6263C83.6767 42.264 80.8657 39.9571 78.888 36.9972C76.9103 34.0374 75.8547 30.5576 75.8547 26.9978C75.8547 22.2243 77.751 17.6463 81.1264 14.2709C84.5017 10.8955 89.0797 8.99927 93.8532 8.99927Z" fill="#8E8E8E" fill-opacity="0.3"/>
<path d="M95.1395 64.2832C84.2323 64.2948 73.7754 68.4432 66.0628 75.8183C58.3503 83.1934 54.0121 93.1929 54 103.623C54 104.782 54.4816 105.894 55.3388 106.714C56.1961 107.533 57.3587 107.994 58.5711 107.994C59.7834 107.994 60.946 107.533 61.8033 106.714C62.6605 105.894 63.1421 104.782 63.1421 103.623C63.1421 95.5079 66.5133 87.7253 72.5139 81.9871C78.5146 76.249 86.6533 73.0253 95.1395 73.0253C103.626 73.0253 111.764 76.249 117.765 81.9871C123.766 87.7253 127.137 95.5079 127.137 103.623C127.137 104.782 127.618 105.894 128.476 106.714C129.333 107.533 130.496 107.994 131.708 107.994C132.92 107.994 134.083 107.533 134.94 106.714C135.797 105.894 136.279 104.782 136.279 103.623C136.267 93.1929 131.929 83.1934 124.216 75.8183C116.504 68.4432 106.047 64.2948 95.1395 64.2832Z" fill="#8E8E8E" fill-opacity="0.3"/>
<path d="M3.84922 151.994H1.64922V137.994H3.84922L11.1092 148.354H11.2492V137.994H13.4492V151.994H11.2492L3.98922 141.634H3.84922V151.994ZM18.7884 141.754C20.0484 141.274 21.2684 141.274 22.4884 141.754C23.7484 142.214 24.8884 143.014 25.5484 144.454C26.2084 145.874 26.2084 147.754 25.5484 149.174C24.8884 150.594 23.7484 151.394 22.4884 151.854C21.2684 152.314 20.0484 152.314 18.7884 151.854C17.5684 151.394 16.4084 150.594 15.7484 149.174C15.0884 147.754 15.0884 145.874 15.7484 144.454C16.4084 143.014 17.5684 142.214 18.7884 141.754ZM17.3484 146.814C17.3484 147.894 17.6884 148.734 18.3484 149.354C19.0284 149.974 19.7884 150.274 20.6484 150.274C21.5084 150.274 22.2684 149.974 22.9284 149.354C23.6084 148.734 23.9484 147.894 23.9484 146.814C23.9484 145.714 23.6084 144.874 22.9284 144.254C22.2684 143.634 21.5084 143.314 20.6484 143.314C19.7884 143.314 19.0284 143.634 18.3484 144.254C17.6884 144.874 17.3484 145.714 17.3484 146.814ZM45.403 137.994H47.823V151.994H45.623V142.294H45.523L41.083 151.994H39.483L35.043 142.294H34.943V151.994H32.743V137.994H35.163L40.283 149.174L45.403 137.994ZM54.9034 141.394C57.2634 141.394 60.4434 143.194 59.9634 147.594H51.7434C52.0634 149.374 53.4234 150.354 55.1634 150.354C56.2634 150.354 57.2234 150.034 58.0434 149.394L59.2634 150.554C58.2834 151.654 56.9034 152.194 55.1034 152.194C54.2034 152.194 53.3434 152.014 52.5234 151.634C50.9034 150.854 49.6234 149.114 49.6234 146.814C49.6234 145.074 50.3434 143.594 51.3834 142.734C52.4434 141.874 53.7034 141.394 54.9034 141.394ZM54.9034 143.254C53.4634 143.254 52.0834 144.254 51.7634 145.994H58.0234C57.9234 145.134 57.5634 144.454 56.9434 143.974C56.3234 143.494 55.6434 143.254 54.9034 143.254ZM74.665 141.394C75.785 141.394 76.725 141.774 77.485 142.554C78.265 143.314 78.645 144.474 78.645 146.054V151.994H76.485V146.054C76.485 144.294 75.585 143.294 74.085 143.294C72.565 143.294 71.585 144.474 71.265 145.914V151.994H69.105V146.054C69.105 144.314 68.085 143.294 66.665 143.294C65.125 143.294 64.125 144.474 63.885 145.914V151.994H61.725V141.594H63.885V143.814C63.945 143.334 64.265 142.814 64.845 142.254C65.425 141.674 66.205 141.394 67.165 141.394C68.685 141.394 70.165 142.274 70.865 143.894C71.085 143.314 71.505 142.754 72.165 142.214C72.825 141.674 73.665 141.394 74.665 141.394ZM86.4884 141.394C87.6884 141.394 88.9284 141.854 89.9484 142.714C90.9684 143.574 91.6484 145.054 91.6484 146.794C91.6484 148.534 90.9684 150.014 89.9484 150.874C88.9284 151.734 87.6884 152.194 86.4884 152.194C84.8284 152.194 83.5084 151.274 83.0284 150.294H82.9084V151.994H80.7484V137.854H82.9084V143.294H83.0284C83.5084 142.314 84.8284 141.394 86.4884 141.394ZM86.2084 150.274C87.0884 150.274 87.8684 149.974 88.5284 149.354C89.2084 148.734 89.5484 147.894 89.5484 146.794C89.5484 145.694 89.2084 144.854 88.5284 144.234C87.8684 143.614 87.0884 143.314 86.2084 143.314C85.3084 143.314 84.5284 143.614 83.8484 144.234C83.1884 144.854 82.8484 145.694 82.8484 146.794C82.8484 147.894 83.1884 148.734 83.8484 149.354C84.5284 149.974 85.3084 150.274 86.2084 150.274ZM98.1261 141.394C100.486 141.394 103.666 143.194 103.186 147.594H94.9661C95.2861 149.374 96.6461 150.354 98.3861 150.354C99.4861 150.354 100.446 150.034 101.266 149.394L102.486 150.554C101.506 151.654 100.126 152.194 98.3261 152.194C97.4261 152.194 96.5661 152.014 95.7461 151.634C94.1261 150.854 92.8461 149.114 92.8461 146.814C92.8461 145.074 93.5661 143.594 94.6061 142.734C95.6661 141.874 96.9261 141.394 98.1261 141.394ZM98.1261 143.254C96.6861 143.254 95.3061 144.254 94.9861 145.994H101.246C101.146 145.134 100.786 144.454 100.166 143.974C99.5461 143.494 98.8661 143.254 98.1261 143.254ZM110.848 141.434C111.128 141.434 111.328 141.454 111.468 141.474V143.534C111.328 143.514 111.148 143.494 110.908 143.494C109.908 143.494 109.048 143.834 108.348 144.494C107.648 145.154 107.228 146.014 107.108 147.094V151.994H104.948V141.594H107.108V144.254C107.568 142.634 108.988 141.434 110.848 141.434ZM119.99 143.854L118.19 144.354C117.83 143.534 117.25 143.134 116.47 143.134C115.65 143.134 115.05 143.594 115.05 144.294C115.05 144.874 115.45 145.314 116.25 145.594L117.39 145.994C119.37 146.694 120.37 147.394 120.37 149.054C120.37 150.034 119.99 150.814 119.23 151.374C118.49 151.914 117.57 152.194 116.49 152.194C114.43 152.194 112.97 151.134 112.57 149.354L114.29 148.834C114.61 149.794 115.43 150.454 116.49 150.454C117.47 150.454 118.27 149.894 118.27 149.094C118.27 148.514 117.81 148.054 116.91 147.714L115.73 147.294C113.89 146.634 112.97 145.634 112.97 144.274C112.97 143.414 113.29 142.734 113.95 142.194C114.61 141.654 115.43 141.394 116.39 141.394C118.15 141.394 119.41 142.334 119.99 143.854ZM140.279 151.994H137.939L136.719 149.034H129.839L128.619 151.994H126.279L132.219 137.994H134.339L140.279 151.994ZM133.279 140.754L130.599 147.214H135.959L133.279 140.754ZM149.844 143.294V137.854H152.004V151.994H149.844V150.294H149.724C149.244 151.274 147.924 152.194 146.264 152.194C145.064 152.194 143.824 151.734 142.804 150.874C141.784 150.014 141.104 148.534 141.104 146.794C141.104 145.054 141.784 143.574 142.804 142.714C143.824 141.854 145.064 141.394 146.264 141.394C147.924 141.394 149.244 142.314 149.724 143.294H149.844ZM146.544 150.274C147.444 150.274 148.224 149.974 148.884 149.354C149.564 148.734 149.904 147.894 149.904 146.794C149.904 145.694 149.564 144.854 148.884 144.234C148.224 143.614 147.444 143.314 146.544 143.314C145.664 143.314 144.884 143.614 144.204 144.234C143.544 144.854 143.204 145.694 143.204 146.794C143.204 147.894 143.544 148.734 144.204 149.354C144.884 149.974 145.664 150.274 146.544 150.274ZM162.265 143.294V137.854H164.425V151.994H162.265V150.294H162.145C161.665 151.274 160.345 152.194 158.685 152.194C157.485 152.194 156.245 151.734 155.225 150.874C154.205 150.014 153.525 148.534 153.525 146.794C153.525 145.054 154.205 143.574 155.225 142.714C156.245 141.854 157.485 141.394 158.685 141.394C160.345 141.394 161.665 142.314 162.145 143.294H162.265ZM158.965 150.274C159.865 150.274 160.645 149.974 161.305 149.354C161.985 148.734 162.325 147.894 162.325 146.794C162.325 145.694 161.985 144.854 161.305 144.234C160.645 143.614 159.865 143.314 158.965 143.314C158.085 143.314 157.305 143.614 156.625 144.234C155.965 144.854 155.625 145.694 155.625 146.794C155.625 147.894 155.965 148.734 156.625 149.354C157.305 149.974 158.085 150.274 158.965 150.274ZM171.407 141.394C173.767 141.394 176.947 143.194 176.467 147.594H168.247C168.567 149.374 169.927 150.354 171.667 150.354C172.767 150.354 173.727 150.034 174.547 149.394L175.767 150.554C174.787 151.654 173.407 152.194 171.607 152.194C170.707 152.194 169.847 152.014 169.027 151.634C167.407 150.854 166.127 149.114 166.127 146.814C166.127 145.074 166.847 143.594 167.887 142.734C168.947 141.874 170.207 141.394 171.407 141.394ZM171.407 143.254C169.967 143.254 168.587 144.254 168.267 145.994H174.527C174.427 145.134 174.067 144.454 173.447 143.974C172.827 143.494 172.147 143.254 171.407 143.254ZM186.289 143.294V137.854H188.449V151.994H186.289V150.294H186.169C185.689 151.274 184.369 152.194 182.709 152.194C181.509 152.194 180.269 151.734 179.249 150.874C178.229 150.014 177.549 148.534 177.549 146.794C177.549 145.054 178.229 143.574 179.249 142.714C180.269 141.854 181.509 141.394 182.709 141.394C184.369 141.394 185.689 142.314 186.169 143.294H186.289ZM182.989 150.274C183.889 150.274 184.669 149.974 185.329 149.354C186.009 148.734 186.349 147.894 186.349 146.794C186.349 145.694 186.009 144.854 185.329 144.234C184.669 143.614 183.889 143.314 182.989 143.314C182.109 143.314 181.329 143.614 180.649 144.234C179.989 144.854 179.649 145.694 179.649 146.794C179.649 147.894 179.989 148.734 180.649 149.354C181.329 149.974 182.109 150.274 182.989 150.274Z" fill="#8E8E8E"/>
</svg>
