<svg width="175" height="94" viewBox="0 0 175 94" fill="none" xmlns="http://www.w3.org/2000/svg">
<path d="M122.797 66.7736L124.587 67.0683C124.727 67.0915 124.859 67.1536 124.959 67.2389C125.06 67.3242 125.138 67.4405 125.169 67.5645C125.176 67.6033 125.184 67.6421 125.184 67.6808C125.184 67.7196 125.184 67.7506 125.176 67.7894L121.053 92.7808C120.999 93.1064 120.666 93.3235 120.301 93.277C120.286 93.277 120.278 93.277 120.263 93.2693L118.472 92.9746C118.457 92.9746 118.449 92.9668 118.434 92.9668C118.069 92.8893 117.821 92.5791 117.876 92.2535L121.999 67.2621C122.007 67.2234 122.014 67.1923 122.03 67.1536C122.045 67.1148 122.061 67.0838 122.084 67.045C122.154 66.9365 122.262 66.8512 122.386 66.8046C122.51 66.7659 122.65 66.7504 122.797 66.7736Z" fill="#FFB93E"/>
<path d="M123.253 79.4512L121.045 92.8347C120.998 93.1216 120.665 93.3077 120.301 93.2689C120.285 93.2689 120.277 93.2689 120.262 93.2612L118.471 92.9665C118.456 92.9665 118.448 92.9587 118.433 92.9587C118.068 92.8812 117.82 92.6021 117.867 92.3152L119.805 80.5755C120.773 80.5445 122.137 80.3196 123.253 79.4512Z" fill="#FFA412"/>
<path d="M121.602 69.7072L121.556 69.9902L124.729 70.5151L124.776 70.232L121.602 69.7072Z" fill="#FFA412"/>
<path d="M121.441 70.6691L121.395 70.9521L124.568 71.4754L124.615 71.1923L121.441 70.6691Z" fill="#FFA412"/>
<path d="M121.253 71.8263L121.206 72.1094L124.379 72.6336L124.426 72.3505L121.253 71.8263Z" fill="#FFA412"/>
<path d="M120.966 73.5822L120.919 73.8652L124.093 74.3891L124.139 74.106L120.966 73.5822Z" fill="#FFA412"/>
<path d="M120.655 75.4415L120.608 75.7246L123.782 76.2485L123.829 75.9654L120.655 75.4415Z" fill="#FFA412"/>
<path d="M120.178 78.3126L120.132 78.5957L123.305 79.1189L123.352 78.8359L120.178 78.3126Z" fill="#FFA412"/>
<path d="M119.74 81.0016L119.693 81.2847L122.867 81.8095L122.913 81.5265L119.74 81.0016Z" fill="#FFA412"/>
<path d="M119.347 83.3859L119.301 83.6689L122.474 84.1928L122.521 83.9097L119.347 83.3859Z" fill="#FFA412"/>
<path d="M121.749 68.7892L121.702 69.0723L124.876 69.5955L124.922 69.3124L121.749 68.7892Z" fill="#FFA412"/>
<path d="M121.856 68.1783L121.81 68.4614L124.983 68.9853L125.03 68.7022L121.856 68.1783Z" fill="#FFA412"/>
<path d="M121.947 67.5963L121.9 67.8794L125.074 68.4026L125.121 68.1195L121.947 67.5963Z" fill="#FFA412"/>
<path d="M121.975 67.4471L125.144 67.9666L125.175 67.7882C125.183 67.7495 125.183 67.7184 125.183 67.6797L122.037 67.1602C122.021 67.1912 122.013 67.2299 122.006 67.2687L121.975 67.4471Z" fill="#FFA412"/>
<path d="M122.083 67.0602L125.16 67.5642C125.129 67.4401 125.051 67.3238 124.951 67.2385L122.385 66.8198C122.261 66.8663 122.153 66.9516 122.083 67.0602Z" fill="#FFA412"/>
<path d="M126.043 66.7741L127.834 67.0688C127.973 67.092 128.105 67.1541 128.206 67.2394C128.307 67.3247 128.384 67.441 128.415 67.565C128.423 67.6038 128.431 67.6426 128.431 67.6813C128.431 67.7201 128.431 67.7511 128.423 67.7899L124.3 92.7812C124.245 93.1069 123.912 93.324 123.548 93.2775C123.532 93.2775 123.525 93.2775 123.509 93.2697L121.719 92.9751C121.703 92.9751 121.695 92.9673 121.68 92.9673C121.316 92.8898 121.075 92.5796 121.122 92.254L125.245 67.2626C125.253 67.2238 125.261 67.1928 125.276 67.1541C125.292 67.1153 125.307 67.0843 125.33 67.0455C125.4 66.9369 125.509 66.8517 125.633 66.8051C125.764 66.7664 125.896 66.7509 126.043 66.7741Z" fill="#FFB93E"/>
<path d="M126.5 79.4512L124.292 92.8347C124.245 93.1216 123.912 93.3077 123.548 93.2689C123.532 93.2689 123.524 93.2689 123.509 93.2612L121.719 92.9665C121.703 92.9665 121.695 92.9587 121.68 92.9587C121.316 92.8812 121.067 92.6021 121.114 92.3152L123.052 80.5755C124.02 80.5445 125.384 80.3196 126.5 79.4512Z" fill="#FFA412"/>
<path d="M124.851 69.7096L124.805 69.9927L127.978 70.5175L128.025 70.2345L124.851 69.7096Z" fill="#FFA412"/>
<path d="M124.694 70.6656L124.647 70.9487L127.821 71.472L127.868 71.1889L124.694 70.6656Z" fill="#FFA412"/>
<path d="M124.501 71.8288L124.454 72.1118L127.627 72.636L127.674 72.353L124.501 71.8288Z" fill="#FFA412"/>
<path d="M124.212 73.5729L124.165 73.856L127.339 74.3798L127.385 74.0968L124.212 73.5729Z" fill="#FFA412"/>
<path d="M123.903 75.4425L123.856 75.7256L127.03 76.2495L127.077 75.9664L123.903 75.4425Z" fill="#FFA412"/>
<path d="M123.427 78.3263L123.38 78.6094L126.553 79.1336L126.6 78.8505L123.427 78.3263Z" fill="#FFA412"/>
<path d="M122.986 80.9889L122.939 81.272L126.113 81.7959L126.16 81.5128L122.986 80.9889Z" fill="#FFA412"/>
<path d="M122.593 83.3849L122.546 83.668L125.72 84.1918L125.766 83.9088L122.593 83.3849Z" fill="#FFA412"/>
<path d="M124.999 68.7946L124.952 69.0776L128.125 69.6018L128.172 69.3188L124.999 68.7946Z" fill="#FFA412"/>
<path d="M125.11 68.192L125.063 68.4751L128.237 68.9983L128.284 68.7152L125.11 68.192Z" fill="#FFA412"/>
<path d="M125.196 67.5983L125.149 67.8813L128.323 68.4046L128.37 68.1215L125.196 67.5983Z" fill="#FFA412"/>
<path d="M125.222 67.4471L128.392 67.9666L128.423 67.7882C128.43 67.7495 128.43 67.7184 128.43 67.6797L125.284 67.1602C125.268 67.1912 125.26 67.2299 125.253 67.2687L125.222 67.4471Z" fill="#FFA412"/>
<path d="M125.338 67.0602L128.415 67.5642C128.384 67.4401 128.306 67.3238 128.206 67.2385L125.64 66.8198C125.516 66.8663 125.408 66.9516 125.338 67.0602Z" fill="#FFA412"/>
<path d="M114.162 90.7658V92.5803C114.162 92.7276 114.123 92.8594 114.054 92.968C113.984 93.0843 113.883 93.1774 113.767 93.2316C113.728 93.2471 113.697 93.2627 113.658 93.2704C113.62 93.2782 113.589 93.2782 113.55 93.2782L88.2373 93.2161C87.9118 93.2161 87.6405 92.9215 87.625 92.5493C87.625 92.5338 87.625 92.526 87.625 92.5105V90.6961C87.625 90.6806 87.625 90.6728 87.625 90.6573C87.6405 90.2928 87.9118 89.9904 88.2373 89.9982L113.55 90.0602C113.589 90.0602 113.62 90.068 113.658 90.068C113.697 90.0757 113.736 90.0912 113.767 90.1068C113.883 90.161 113.984 90.2541 114.054 90.3704C114.123 90.4867 114.162 90.6185 114.162 90.7658Z" fill="#FFB93E"/>
<path d="M101.723 93.255L88.1597 93.2239C87.8652 93.2239 87.6327 92.9293 87.6172 92.5571C87.6172 92.5416 87.6172 92.5338 87.6172 92.5183V90.7039C87.6172 90.6884 87.6172 90.6806 87.6172 90.6651C87.6327 90.3007 87.8729 89.9983 88.1675 90.006L100.064 90.037C100.25 90.983 100.692 92.2935 101.723 93.255Z" fill="#FFA412"/>
<path d="M110.797 90.057L110.789 93.2749L111.076 93.2756L111.083 90.0576L110.797 90.057Z" fill="#FFA412"/>
<path d="M109.817 90.057L109.81 93.2749L110.096 93.2756L110.104 90.0576L109.817 90.057Z" fill="#FFA412"/>
<path d="M108.653 90.0492L108.645 93.2671L108.931 93.2678L108.94 90.0499L108.653 90.0492Z" fill="#FFA412"/>
<path d="M106.859 90.0457L106.852 93.2637L107.138 93.2643L107.146 90.0464L106.859 90.0457Z" fill="#FFA412"/>
<path d="M104.971 90.0389L104.963 93.2568L105.25 93.2575L105.257 90.0396L104.971 90.0389Z" fill="#FFA412"/>
<path d="M102.067 90.0365L102.06 93.2544L102.346 93.2551L102.354 90.0371L102.067 90.0365Z" fill="#FFA412"/>
<path d="M99.3494 90.0252L99.3418 93.2432L99.6286 93.2438L99.6362 90.0259L99.3494 90.0252Z" fill="#FFA412"/>
<path d="M96.9215 90.0277L96.9131 93.2456L97.1999 93.2464L97.2083 90.0284L96.9215 90.0277Z" fill="#FFA412"/>
<path d="M111.721 90.056L111.714 93.2739L112.001 93.2746L112.008 90.0567L111.721 90.056Z" fill="#FFA412"/>
<path d="M112.332 90.0584L112.325 93.2764L112.612 93.277L112.619 90.059L112.332 90.0584Z" fill="#FFA412"/>
<path d="M112.923 90.0618L112.915 93.2798L113.202 93.2805L113.209 90.0625L112.923 90.0618Z" fill="#FFA412"/>
<path d="M113.372 90.0679L113.364 93.2858H113.543C113.581 93.2858 113.612 93.2858 113.651 93.278L113.659 90.0834C113.62 90.0756 113.589 90.0756 113.55 90.0756L113.372 90.0679Z" fill="#FFA412"/>
<path d="M113.768 90.1147L113.76 93.2396C113.876 93.1854 113.977 93.0923 114.047 92.976L114.054 90.3784C113.985 90.2543 113.884 90.169 113.768 90.1147Z" fill="#FFA412"/>
<path d="M111.457 87.5476V89.362C111.457 89.5094 111.418 89.6412 111.349 89.7497C111.279 89.866 111.178 89.9591 111.062 90.0134C111.023 90.0289 110.992 90.0444 110.953 90.0521C110.914 90.0599 110.883 90.0599 110.845 90.0599L85.5322 89.9979C85.2067 89.9979 84.9354 89.7032 84.9199 89.331C84.9199 89.3155 84.9199 89.3078 84.9199 89.2923V87.4778C84.9199 87.4623 84.9199 87.4545 84.9199 87.439C84.9354 87.0668 85.2067 86.7722 85.5322 86.7799L110.845 86.842C110.86 86.842 110.876 86.842 110.891 86.842C110.899 86.842 110.907 86.842 110.914 86.842C110.922 86.842 110.93 86.842 110.938 86.842C110.945 86.842 110.945 86.842 110.953 86.842C110.992 86.8497 111.031 86.8652 111.062 86.8807C111.07 86.8807 111.07 86.8885 111.077 86.8885C111.085 86.8885 111.085 86.8962 111.093 86.8962C111.101 86.904 111.116 86.904 111.124 86.9118C111.132 86.9118 111.139 86.9195 111.139 86.9195C111.147 86.9195 111.147 86.9273 111.155 86.9273C111.163 86.935 111.17 86.9428 111.186 86.9505C111.194 86.9583 111.209 86.966 111.217 86.9738C111.225 86.9815 111.232 86.9893 111.24 86.997C111.248 87.0048 111.248 87.0048 111.256 87.0126C111.271 87.0281 111.287 87.0436 111.302 87.0668C111.31 87.0746 111.31 87.0746 111.318 87.0823C111.325 87.0901 111.325 87.0901 111.333 87.0978C111.341 87.1056 111.349 87.1211 111.356 87.1366C111.418 87.2684 111.457 87.4003 111.457 87.5476Z" fill="#FFB93E"/>
<path d="M99.0255 90.0289L85.4624 89.9979C85.1679 89.9979 84.9354 89.7032 84.9199 89.331C84.9199 89.3155 84.9199 89.3078 84.9199 89.2923V87.4778C84.9199 87.4623 84.9199 87.4545 84.9199 87.439C84.9354 87.0668 85.1757 86.7722 85.4702 86.7799L97.3669 86.811C97.3747 86.8342 97.3747 86.8652 97.3824 86.8885C97.5762 87.8267 98.018 89.0984 99.0255 90.0289Z" fill="#FFA412"/>
<path d="M108.092 86.8304L108.084 90.0483L108.371 90.049L108.378 86.8311L108.092 86.8304Z" fill="#FFA412"/>
<path d="M107.121 86.8314L107.113 90.0493L107.4 90.05L107.408 86.8321L107.121 86.8314Z" fill="#FFA412"/>
<path d="M105.947 86.8304L105.939 90.0483L106.226 90.049L106.234 86.8311L105.947 86.8304Z" fill="#FFA412"/>
<path d="M104.162 86.827L104.154 90.0449L104.441 90.0456L104.449 86.8277L104.162 86.827Z" fill="#FFA412"/>
<path d="M102.265 86.8201L102.258 90.0381L102.545 90.0387L102.551 86.8208L102.265 86.8201Z" fill="#FFA412"/>
<path d="M99.3629 86.8099L99.3545 90.0278L99.6413 90.0286L99.6497 86.8106L99.3629 86.8099Z" fill="#FFA412"/>
<path d="M96.6522 86.8075L96.6445 90.0254L96.9313 90.0261L96.9389 86.8081L96.6522 86.8075Z" fill="#FFA412"/>
<path d="M94.2236 86.8006L94.2168 90.0186L94.5036 90.0192L94.5103 86.8012L94.2236 86.8006Z" fill="#FFA412"/>
<path d="M109.016 86.8372L109.009 90.0552L109.296 90.0558L109.303 86.8379L109.016 86.8372Z" fill="#FFA412"/>
<path d="M109.636 86.8397L109.628 90.0576L109.915 90.0583L109.922 86.8404L109.636 86.8397Z" fill="#FFA412"/>
<path d="M110.225 86.8348L110.218 90.0527L110.505 90.0534L110.512 86.8355L110.225 86.8348Z" fill="#FFA412"/>
<path d="M110.666 86.8423L110.658 90.0602H110.836C110.875 90.0602 110.906 90.0602 110.945 90.0525L110.953 86.8578C110.914 86.85 110.883 86.85 110.844 86.85L110.666 86.8423Z" fill="#FFA412"/>
<path d="M111.069 86.8892L111.062 90.014C111.178 89.9598 111.279 89.8667 111.348 89.7504L111.356 87.1528C111.286 87.0365 111.186 86.9434 111.069 86.8892Z" fill="#FFA412"/>
<path d="M112.774 84.407V86.2215C112.774 86.3688 112.736 86.5006 112.666 86.6092C112.596 86.7255 112.495 86.8185 112.379 86.8728C112.34 86.8883 112.309 86.9038 112.271 86.9116C112.232 86.9193 112.201 86.9193 112.162 86.9193L86.8496 86.8573C86.7489 86.8573 86.6481 86.8263 86.5706 86.7798C86.3924 86.6712 86.2606 86.4696 86.2451 86.2292C86.2451 86.2215 86.2451 86.206 86.2451 86.1982C86.2451 86.1827 86.2451 86.1749 86.2451 86.1594V84.345C86.2451 84.3295 86.2451 84.3217 86.2451 84.3062C86.2606 83.9418 86.5319 83.6394 86.8574 83.6471L112.17 83.7092C112.209 83.7092 112.24 83.7169 112.278 83.7169C112.317 83.7247 112.356 83.7402 112.387 83.7557C112.503 83.81 112.604 83.903 112.674 84.0193C112.736 84.1279 112.774 84.2674 112.774 84.407Z" fill="#FFB93E"/>
<path d="M100.335 86.8961L86.772 86.8651C86.679 86.8651 86.5938 86.8341 86.524 86.7876C86.3612 86.679 86.2527 86.4774 86.2295 86.237C86.2295 86.2293 86.2295 86.2138 86.2295 86.206C86.2295 86.1905 86.2295 86.1828 86.2295 86.1672V84.3528C86.2295 84.3373 86.2295 84.3295 86.2295 84.314C86.245 83.9496 86.4853 83.6472 86.7798 83.6549L98.6765 83.6859C98.8625 84.6087 99.281 85.8726 100.25 86.8263C100.281 86.8419 100.312 86.8729 100.335 86.8961Z" fill="#FFA412"/>
<path d="M113.387 81.1968V83.0112C113.387 83.1586 113.348 83.2904 113.278 83.3989C113.208 83.5153 113.108 83.6083 112.991 83.6626C112.953 83.6781 112.922 83.6936 112.883 83.7014C112.844 83.7091 112.813 83.7091 112.774 83.7091L87.4619 83.6471C87.1364 83.6471 86.8651 83.3524 86.8496 82.9802C86.8496 82.9647 86.8496 82.957 86.8496 82.9415V81.127C86.8496 81.1115 86.8496 81.1037 86.8496 81.0882C86.8651 80.7471 87.0976 80.4679 87.3921 80.4291C87.4154 80.4291 87.4386 80.4214 87.4619 80.4214L112.774 80.4834C112.813 80.4834 112.844 80.4912 112.883 80.4912C112.922 80.4989 112.96 80.5144 112.991 80.5299C113.108 80.5842 113.208 80.6773 113.278 80.7936C113.348 80.9176 113.387 81.0495 113.387 81.1968Z" fill="#FFB93E"/>
<path d="M100.947 83.6859L87.3843 83.6549C87.0898 83.6549 86.8573 83.3602 86.8418 82.988C86.8418 82.9725 86.8418 82.9648 86.8418 82.9493V81.1348C86.8418 81.1193 86.8418 81.1116 86.8418 81.096C86.8573 80.7549 87.0666 80.4757 87.3223 80.437C87.3456 80.437 87.3611 80.4292 87.3843 80.4292L99.2811 80.4602C99.2811 80.4602 99.2811 80.4602 99.2811 80.468C99.4826 81.414 99.9166 82.7244 100.947 83.6859Z" fill="#FFA412"/>
<path d="M111.526 77.9795V79.794C111.526 79.9413 111.488 80.0731 111.418 80.1817C111.348 80.298 111.247 80.391 111.131 80.4453C111.092 80.4608 111.061 80.4763 111.023 80.4841C111.007 80.4841 110.999 80.4918 110.984 80.4918C110.976 80.4918 110.968 80.4918 110.961 80.4918C110.953 80.4918 110.945 80.4918 110.937 80.4918C110.93 80.4918 110.914 80.4918 110.906 80.4918L85.5937 80.4298C85.2682 80.4298 84.9969 80.1351 84.9814 79.7629C84.9814 79.7474 84.9814 79.7397 84.9814 79.7242V77.9097C84.9814 77.8942 84.9814 77.8865 84.9814 77.8709C84.9814 77.8632 84.9814 77.8477 84.9814 77.8399C85.0047 77.5453 85.1984 77.2971 85.4387 77.2274C85.4465 77.2274 85.4542 77.2274 85.4542 77.2196C85.5007 77.2119 85.5395 77.2041 85.586 77.2041L110.899 77.2661C110.914 77.2661 110.937 77.2661 110.953 77.2661C110.961 77.2661 110.968 77.2661 110.976 77.2661C110.984 77.2661 110.992 77.2661 111.007 77.2739C111.046 77.2816 111.085 77.2972 111.116 77.3127C111.232 77.3669 111.333 77.46 111.402 77.5763C111.488 77.7004 111.526 77.8399 111.526 77.9795Z" fill="#FFB93E"/>
<path d="M99.0948 80.4687L85.5318 80.4377C85.2373 80.4377 85.0048 80.143 84.9893 79.7708C84.9893 79.7553 84.9893 79.7476 84.9893 79.732V77.9176C84.9893 77.9021 84.9893 77.8943 84.9893 77.8788C84.9893 77.8711 84.9893 77.8556 84.9893 77.8478C85.0125 77.5454 85.1908 77.2973 85.4155 77.2352C85.4233 77.2352 85.431 77.2275 85.4388 77.2275C85.4698 77.2197 85.5008 77.2197 85.5318 77.2197L97.4285 77.2507C97.4285 77.2585 97.4285 77.2663 97.4363 77.274C97.63 78.2123 98.0718 79.5072 99.0948 80.4687Z" fill="#FFA412"/>
<path d="M111.48 74.7849V76.5993C111.48 76.7467 111.442 76.8785 111.372 76.987C111.302 77.1034 111.201 77.1964 111.085 77.2507C111.054 77.2662 111.031 77.2739 111 77.2817C110.992 77.2817 110.984 77.2895 110.977 77.2895C110.938 77.2972 110.907 77.2972 110.868 77.2972L85.5556 77.2352C85.5324 77.2352 85.5014 77.2352 85.4781 77.2274C85.4704 77.2274 85.4549 77.2274 85.4471 77.2197C85.1681 77.1654 84.9589 76.894 84.9434 76.5683C84.9434 76.5528 84.9434 76.5451 84.9434 76.5295V74.7151C84.9434 74.6996 84.9434 74.6918 84.9434 74.6763C84.9589 74.3041 85.2301 74.0095 85.5556 74.0172L110.868 74.0793C110.884 74.0793 110.899 74.0793 110.915 74.0793C110.922 74.0793 110.93 74.0793 110.938 74.0793C110.946 74.0793 110.953 74.0793 110.961 74.0793C110.969 74.0793 110.969 74.0793 110.977 74.0793C111.015 74.087 111.054 74.1025 111.085 74.118C111.093 74.118 111.093 74.1258 111.101 74.1258C111.108 74.1258 111.108 74.1336 111.116 74.1336C111.124 74.1413 111.139 74.1413 111.147 74.1491C111.155 74.1568 111.17 74.1646 111.178 74.1723C111.186 74.1801 111.194 74.1878 111.209 74.1956C111.217 74.2033 111.232 74.2111 111.24 74.2188C111.248 74.2266 111.256 74.2343 111.263 74.2421C111.271 74.2499 111.271 74.2499 111.279 74.2576C111.294 74.2731 111.31 74.2886 111.325 74.3119C111.333 74.3196 111.333 74.3196 111.341 74.3274C111.349 74.3352 111.349 74.3352 111.356 74.3429C111.364 74.3507 111.372 74.3662 111.38 74.3817C111.442 74.5057 111.48 74.6453 111.48 74.7849Z" fill="#FFB93E"/>
<path d="M99.0489 77.273L85.4858 77.242C85.4781 77.242 85.4626 77.242 85.4548 77.242C85.4393 77.242 85.4316 77.242 85.4161 77.2343C85.1526 77.1955 84.951 76.9163 84.9355 76.5752C84.9355 76.5597 84.9355 76.5519 84.9355 76.5364V74.7219C84.9355 74.7064 84.9355 74.6987 84.9355 74.6832C84.951 74.311 85.1913 74.0163 85.4858 74.0241L97.3826 74.0551C97.3903 74.0784 97.3903 74.1094 97.3981 74.1326C97.5918 75.0631 98.0336 76.3193 99.0179 77.2498C99.0334 77.2575 99.0411 77.2653 99.0489 77.273Z" fill="#FFA412"/>
<path d="M112.798 71.6521V73.4666C112.798 73.6139 112.759 73.7457 112.689 73.8543C112.62 73.9706 112.519 74.0637 112.403 74.1179C112.364 74.1334 112.333 74.1489 112.294 74.1567C112.255 74.1645 112.224 74.1645 112.186 74.1645L86.8731 74.1024C86.7723 74.1024 86.6716 74.0714 86.5941 74.0249C86.4158 73.9163 86.2841 73.7147 86.2686 73.4743C86.2686 73.4666 86.2686 73.4511 86.2686 73.4433C86.2686 73.4278 86.2686 73.4201 86.2686 73.4046V71.5901C86.2686 71.5746 86.2686 71.5668 86.2686 71.5513C86.2841 71.1791 86.5553 70.8845 86.8808 70.8922L112.193 70.9543C112.232 70.9543 112.263 70.962 112.302 70.962C112.341 70.9698 112.379 70.9853 112.41 71.0008C112.527 71.0551 112.627 71.1481 112.697 71.2644C112.759 71.373 112.798 71.5126 112.798 71.6521Z" fill="#FFB93E"/>
<path d="M100.359 74.1413L86.7955 74.1102C86.7024 74.1102 86.6172 74.0792 86.5474 74.0327C86.3847 73.9241 86.2762 73.7225 86.2529 73.4822C86.2529 73.4744 86.2529 73.4589 86.2529 73.4511C86.2529 73.4356 86.2529 73.4279 86.2529 73.4124V71.5979C86.2529 71.5824 86.2529 71.5747 86.2529 71.5591C86.2684 71.187 86.5087 70.8923 86.8032 70.9001L98.7 70.9311C98.886 71.8538 99.3045 73.1177 100.273 74.0715C100.304 74.087 100.335 74.118 100.359 74.1413Z" fill="#FFA412"/>
<path d="M114.867 68.4419V70.2564C114.867 70.4037 114.828 70.5355 114.759 70.6441C114.689 70.7604 114.588 70.8534 114.472 70.9077C114.433 70.9232 114.402 70.9387 114.363 70.9465C114.325 70.9542 114.294 70.9542 114.255 70.9542L88.9424 70.8922C88.6168 70.8922 88.3456 70.5975 88.3301 70.2253C88.3301 70.2098 88.3301 70.2021 88.3301 70.1866V68.3721C88.3301 68.3566 88.3301 68.3489 88.3301 68.3334C88.3456 67.9922 88.5781 67.713 88.8726 67.6743C88.8959 67.6743 88.9191 67.6665 88.9424 67.6665L114.255 67.7285C114.294 67.7285 114.325 67.7363 114.363 67.7363C114.402 67.744 114.441 67.7596 114.472 67.7751C114.588 67.8293 114.689 67.9224 114.759 68.0387C114.828 68.1628 114.867 68.3023 114.867 68.4419Z" fill="#FFB93E"/>
<path d="M102.436 70.9315L88.8726 70.9005C88.5781 70.9005 88.3456 70.6058 88.3301 70.2336C88.3301 70.2181 88.3301 70.2104 88.3301 70.1949V68.3804C88.3301 68.3649 88.3301 68.3572 88.3301 68.3417C88.3456 68.0005 88.5548 67.7213 88.8106 67.6826C88.8338 67.6826 88.8571 67.6748 88.8726 67.6748L100.769 67.7058C100.769 67.7058 100.769 67.7058 100.769 67.7136C100.963 68.6596 101.405 69.97 102.436 70.9315Z" fill="#FFA412"/>
<path d="M111.55 65.2239V67.0383C111.55 67.1856 111.511 67.3175 111.441 67.426C111.371 67.5423 111.271 67.6354 111.154 67.6896C111.116 67.7051 111.085 67.7207 111.046 67.7284C111.03 67.7284 111.023 67.7362 111.007 67.7362C110.999 67.7362 110.992 67.7362 110.976 67.7362C110.968 67.7362 110.968 67.7362 110.961 67.7362C110.953 67.7362 110.937 67.7362 110.93 67.7362L85.6172 67.6741C85.2916 67.6741 85.0204 67.3795 85.0049 67.0073C85.0049 66.9918 85.0049 66.984 85.0049 66.9685V65.1541C85.0049 65.1386 85.0049 65.1308 85.0049 65.1153C85.0204 64.7509 85.2916 64.4484 85.6172 64.4562L110.93 64.5182C110.937 64.5182 110.953 64.5182 110.961 64.5182C110.984 64.5182 111.015 64.526 111.038 64.526C111.077 64.5337 111.116 64.5493 111.147 64.5648C111.162 64.5725 111.185 64.5803 111.201 64.5958C111.209 64.6035 111.224 64.6113 111.232 64.619C111.24 64.6268 111.255 64.6345 111.263 64.6423C111.263 64.6423 111.263 64.6423 111.271 64.6423C111.278 64.6501 111.286 64.6578 111.302 64.6656C111.325 64.6811 111.34 64.7043 111.364 64.7276C111.371 64.7353 111.379 64.7431 111.379 64.7509C111.379 64.7586 111.387 64.7586 111.387 64.7664C111.395 64.7741 111.402 64.7819 111.402 64.7896C111.41 64.8051 111.418 64.8129 111.426 64.8284C111.511 64.9447 111.55 65.0765 111.55 65.2239Z" fill="#FFB93E"/>
<path d="M99.1183 67.713L85.5552 67.682C85.2607 67.682 85.0282 67.3873 85.0127 67.0151C85.0127 66.9996 85.0127 66.9918 85.0127 66.9763V65.1619C85.0127 65.1464 85.0127 65.1386 85.0127 65.1231C85.0282 64.7587 85.2685 64.4563 85.563 64.464L97.4597 64.495C97.4675 64.5183 97.4675 64.5416 97.4752 64.5726C97.669 65.5031 98.1107 66.767 99.1183 67.713Z" fill="#FFA412"/>
<path d="M113.418 62.0913V63.9058C113.418 64.0531 113.379 64.1849 113.31 64.2935C113.24 64.4098 113.139 64.5028 113.023 64.5571C112.984 64.5726 112.953 64.5881 112.914 64.5959C112.875 64.6036 112.844 64.6036 112.806 64.6036L87.4932 64.5416C87.3924 64.5416 87.2994 64.5106 87.2219 64.4641C87.0359 64.3555 86.9042 64.1462 86.8887 63.9058C86.8887 63.898 86.8887 63.8903 86.8887 63.8748C86.8887 63.8593 86.8887 63.8515 86.8887 63.836V62.0215C86.8887 62.006 86.8887 61.9983 86.8887 61.9828C86.9042 61.6416 87.1367 61.3624 87.4312 61.3237C87.4544 61.3237 87.4777 61.3159 87.5009 61.3159L112.813 61.378C112.852 61.378 112.883 61.3857 112.922 61.3857C112.961 61.3935 112.999 61.409 113.031 61.4245C113.147 61.4788 113.248 61.5718 113.317 61.6881C113.379 61.8122 113.418 61.944 113.418 62.0913Z" fill="#FFB93E"/>
<path d="M100.986 64.5726L87.4234 64.5416C87.3381 64.5416 87.2529 64.5183 87.1831 64.4641C87.0204 64.3555 86.9041 64.1462 86.8809 63.9058C86.8809 63.898 86.8809 63.8903 86.8809 63.8748C86.8809 63.8593 86.8809 63.8515 86.8809 63.836V62.0215C86.8809 62.006 86.8809 61.9983 86.8809 61.9828C86.8964 61.6416 87.1056 61.3624 87.3614 61.3237C87.3846 61.3237 87.4001 61.3159 87.4234 61.3159L99.3201 61.3469C99.3201 61.3469 99.3201 61.3469 99.3201 61.3547C99.5061 62.2774 99.9246 63.5413 100.901 64.4951C100.932 64.5261 100.955 64.5494 100.986 64.5726Z" fill="#FFA412"/>
<path d="M111.565 58.8733V60.6877C111.565 60.835 111.527 60.9669 111.457 61.0754C111.387 61.1917 111.286 61.2848 111.17 61.3391C111.131 61.3546 111.1 61.3701 111.062 61.3778C111.046 61.3778 111.038 61.3856 111.023 61.3856C111.015 61.3856 111.007 61.3856 111 61.3856C110.992 61.3856 110.984 61.3856 110.976 61.3856C110.969 61.3856 110.953 61.3856 110.945 61.3856L85.6328 61.3236C85.3073 61.3236 85.036 61.0289 85.0205 60.6567C85.0205 60.6412 85.0205 60.6334 85.0205 60.6179V58.8035C85.0205 58.788 85.0205 58.7802 85.0205 58.7647C85.036 58.4003 85.3073 58.0979 85.6328 58.1056L110.945 58.1677C110.984 58.1677 111.015 58.1754 111.054 58.1754C111.093 58.1832 111.131 58.1987 111.162 58.2142C111.279 58.2685 111.379 58.3615 111.449 58.4778C111.527 58.5941 111.565 58.7259 111.565 58.8733Z" fill="#FFB93E"/>
<path d="M99.1261 61.3624L85.563 61.3314C85.2685 61.3314 85.036 61.0367 85.0205 60.6645C85.0205 60.649 85.0205 60.6413 85.0205 60.6257V58.8113C85.0205 58.7958 85.0205 58.788 85.0205 58.7725C85.036 58.4081 85.2763 58.1057 85.5708 58.1134L97.4675 58.1444C97.6535 59.0827 98.0953 60.3931 99.1261 61.3624C99.1261 61.3546 99.1261 61.3546 99.1261 61.3624Z" fill="#FFA412"/>
<path d="M109.406 83.701L109.398 86.9189L109.685 86.9196L109.693 83.7017L109.406 83.701Z" fill="#FFA412"/>
<path d="M108.434 83.701L108.428 86.9189L108.715 86.9195L108.721 83.7016L108.434 83.701Z" fill="#FFA412"/>
<path d="M107.262 83.6932L107.255 86.9111L107.542 86.9117L107.548 83.6938L107.262 83.6932Z" fill="#FFA412"/>
<path d="M105.476 83.6898L105.469 86.9077L105.756 86.9084L105.763 83.6905L105.476 83.6898Z" fill="#FFA412"/>
<path d="M103.58 83.6829L103.572 86.9009L103.859 86.9016L103.867 83.6836L103.58 83.6829Z" fill="#FFA412"/>
<path d="M100.677 83.6805L100.669 86.8984L100.956 86.8991L100.963 83.6812L100.677 83.6805Z" fill="#FFA412"/>
<path d="M97.9579 83.6702L97.9512 86.8882L98.2379 86.8888L98.2447 83.6708L97.9579 83.6702Z" fill="#FFA412"/>
<path d="M95.5389 83.6634L95.5312 86.8813L95.818 86.882L95.8256 83.6641L95.5389 83.6634Z" fill="#FFA412"/>
<path d="M110.331 83.7L110.323 86.918L110.61 86.9186L110.618 83.7007L110.331 83.7Z" fill="#FFA412"/>
<path d="M110.941 83.702L110.935 86.9199L111.221 86.9205L111.228 83.7026L110.941 83.702Z" fill="#FFA412"/>
<path d="M111.54 83.7054L111.532 86.9233L111.819 86.924L111.827 83.7061L111.54 83.7054Z" fill="#FFA412"/>
<path d="M111.983 83.7095L111.976 86.9274H112.154C112.193 86.9274 112.224 86.9274 112.262 86.9196L112.27 83.725C112.231 83.7172 112.2 83.7172 112.162 83.7172L111.983 83.7095Z" fill="#FFA412"/>
<path d="M112.379 83.7563L112.371 86.8812C112.487 86.827 112.588 86.7339 112.658 86.6176L112.666 84.02C112.596 83.9037 112.495 83.8106 112.379 83.7563Z" fill="#FFA412"/>
<path d="M101.294 80.4652L101.286 83.6831L101.573 83.6838L101.581 80.4658L101.294 80.4652Z" fill="#FFA412"/>
<path d="M98.5749 80.4549L98.5674 83.6729L98.8541 83.6735L98.8617 80.4556L98.5749 80.4549Z" fill="#FFA412"/>
<path d="M96.1473 80.4495L96.1396 83.6675L96.4264 83.6682L96.434 80.4502L96.1473 80.4495Z" fill="#FFA412"/>
<path d="M111.224 83.7099L111.232 80.492H110.976C110.992 80.492 110.999 80.492 111.015 80.4842L111.023 77.2895C111.007 77.2895 110.984 77.2818 110.968 77.2818L110.976 74.1647H111.085L111.077 77.2508C111.193 77.1965 111.294 77.1034 111.364 76.9871L111.371 74.3895C111.317 74.2887 111.232 74.2112 111.147 74.1569H111.247L111.255 70.939H110.968L110.961 74.0871C110.93 74.0794 110.899 74.0794 110.868 74.0794H110.689L110.682 77.2973H110.736L110.728 80.492H110.906C110.914 80.492 110.93 80.492 110.937 80.492L110.93 83.7022L111.224 83.7099Z" fill="#FFA412"/>
<path d="M111.558 80.4871L111.551 83.7051L111.838 83.7058L111.845 80.4878L111.558 80.4871Z" fill="#FFA412"/>
<path d="M112.149 80.4906L112.141 83.7085L112.427 83.7092L112.436 80.4913L112.149 80.4906Z" fill="#FFA412"/>
<path d="M112.596 80.4907L112.588 83.7087H112.766C112.805 83.7087 112.836 83.7087 112.875 83.7009L112.882 80.5062C112.844 80.4985 112.813 80.4985 112.774 80.4985L112.596 80.4907Z" fill="#FFA412"/>
<path d="M112.991 80.5454L112.983 83.6703C113.1 83.616 113.2 83.523 113.27 83.4067L113.278 80.8091C113.208 80.685 113.107 80.5919 112.991 80.5454Z" fill="#FFA412"/>
<path d="M108.442 80.4912L108.449 77.2733H108.395L108.403 74.0786H108.116L108.108 77.2966H108.163L108.155 80.4835H107.876L107.868 83.7014H108.155L108.163 80.4912H108.442Z" fill="#FFA412"/>
<path d="M106.311 77.2655H106.256L106.264 74.0786L105.97 74.0708V77.2887H106.024L106.016 80.4834H106.086L106.078 83.6936H106.365L106.373 80.4757H106.303L106.311 77.2655Z" fill="#FFA412"/>
<path d="M111.139 77.3281L111.131 80.453C111.247 80.3987 111.348 80.3057 111.418 80.1894L111.425 77.5918C111.356 77.4755 111.255 77.3824 111.139 77.3281Z" fill="#FFA412"/>
<path d="M104.473 74.0708H104.179V77.2887H104.233L104.225 80.4757H104.194L104.186 83.6936H104.473L104.481 80.4834H104.512L104.52 77.2655H104.465L104.473 74.0708Z" fill="#FFA412"/>
<path d="M102.575 74.063H102.288L102.28 77.2809H102.335V80.4756H102.621V77.2577H102.575V74.063Z" fill="#FFA412"/>
<path d="M99.6764 74.0624L99.3896 74.0547L99.3818 77.2726H99.4361L99.4283 80.4673H99.7151L99.7229 77.2494H99.6686L99.6764 74.0624Z" fill="#FFA412"/>
<path d="M96.9557 74.0547H96.6689V77.2649H96.7154V80.4595H97.0022L97.01 77.2494L96.9557 77.2416V74.0547Z" fill="#FFA412"/>
<path d="M94.5299 74.0479H94.2431L94.2354 77.2658H94.2896V80.4527H94.5764V77.2425H94.5299V74.0479Z" fill="#FFA412"/>
<path d="M109.333 74.0864L109.038 74.0786V77.2966H109.092L109.085 80.4835H109.046L109.038 83.7014H109.325L109.333 80.4912H109.371L109.379 77.2733H109.325L109.333 74.0864Z" fill="#FFA412"/>
<path d="M109.945 74.0862H109.713V70.9458H109.426V74.1637H109.651V77.2964H109.705L109.697 80.4911H109.984L109.992 77.2731H109.937L109.945 74.0862Z" fill="#FFA412"/>
<path d="M108.459 70.9451L108.451 74.1631L108.738 74.1638L108.746 70.9458L108.459 70.9451Z" fill="#FFA412"/>
<path d="M107.279 74.0794H107.14L107.132 77.2973H107.186L107.178 80.4842H107.473V77.274H107.426V74.1569H107.566L107.574 70.939H107.287L107.279 74.0794Z" fill="#FFA412"/>
<path d="M105.501 70.9325L105.492 74.1504L105.779 74.1511L105.787 70.9332L105.501 70.9325Z" fill="#FFA412"/>
<path d="M103.603 70.9271L103.596 74.145L103.882 74.1457L103.89 70.9278L103.603 70.9271Z" fill="#FFA412"/>
<path d="M100.701 70.9246L100.693 74.1426L100.98 74.1433L100.988 70.9253L100.701 70.9246Z" fill="#FFA412"/>
<path d="M97.9824 70.9134L97.9756 74.1313L98.2624 74.132L98.2692 70.914L97.9824 70.9134Z" fill="#FFA412"/>
<path d="M95.5623 70.9076L95.5547 74.1255L95.8415 74.1262L95.8491 70.9082L95.5623 70.9076Z" fill="#FFA412"/>
<path d="M110.348 74.0862H110.247L110.239 77.3041H110.294L110.286 80.4911H110.015V83.7012H110.301V80.4911H110.573L110.58 77.2809H110.526L110.534 74.1637H110.635L110.642 70.9458H110.356L110.348 74.0862Z" fill="#FFA412"/>
<path d="M111.563 70.9486L111.556 74.1665L111.842 74.1672L111.85 70.9492L111.563 70.9486Z" fill="#FFA412"/>
<path d="M112.286 74.156L112.294 70.9614C112.255 70.9536 112.224 70.9536 112.185 70.9536H112.007L111.999 74.1716H112.177C112.216 74.1716 112.247 74.1638 112.286 74.156Z" fill="#FFA412"/>
<path d="M112.689 73.8617L112.697 71.2641C112.627 71.1478 112.526 71.0548 112.41 71.0005L112.402 74.1254C112.519 74.0711 112.619 73.9781 112.689 73.8617Z" fill="#FFA412"/>
<path d="M111.506 67.7313L111.498 70.9492L111.785 70.9499L111.792 67.732L111.506 67.7313Z" fill="#FFA412"/>
<path d="M107.575 67.7264L107.567 70.9443L107.854 70.945L107.862 67.7271L107.575 67.7264Z" fill="#FFA412"/>
<path d="M105.679 67.721L105.672 70.939L105.959 70.9396L105.966 67.7217L105.679 67.721Z" fill="#FFA412"/>
<path d="M102.776 67.7108L102.769 70.9287L103.055 70.9294L103.063 67.7115L102.776 67.7108Z" fill="#FFA412"/>
<path d="M100.058 67.7074L100.051 70.9253L100.338 70.926L100.345 67.708L100.058 67.7074Z" fill="#FFA412"/>
<path d="M97.6376 67.7015L97.6309 70.9194L97.9176 70.92L97.9244 67.7021L97.6376 67.7015Z" fill="#FFA412"/>
<path d="M112.43 67.7381L112.423 70.9561L112.71 70.9567L112.717 67.7388L112.43 67.7381Z" fill="#FFA412"/>
<path d="M113.041 67.7391L113.033 70.957L113.32 70.9577L113.328 67.7398L113.041 67.7391Z" fill="#FFA412"/>
<path d="M113.632 67.7357L113.624 70.9536L113.911 70.9543L113.918 67.7363L113.632 67.7357Z" fill="#FFA412"/>
<path d="M114.076 67.7441L114.068 70.9621H114.247C114.285 70.9621 114.316 70.9621 114.355 70.9543L114.363 67.7596C114.324 67.7519 114.293 67.7519 114.254 67.7519L114.076 67.7441Z" fill="#FFA412"/>
<path d="M114.479 67.7896L114.472 70.9144C114.588 70.8602 114.689 70.7671 114.758 70.6508L114.766 68.0532C114.696 67.9369 114.596 67.8438 114.479 67.7896Z" fill="#FFA412"/>
<path d="M108.178 67.7355H108.465L108.473 64.5176H108.194L108.202 61.3772H108.481L108.489 58.167H108.194V61.3772H107.907V64.5874H108.186L108.178 67.7355Z" fill="#FFA412"/>
<path d="M107.21 64.5125L107.201 67.7305L107.488 67.7312L107.496 64.5133L107.21 64.5125Z" fill="#FFA412"/>
<path d="M102.362 64.5023L102.354 67.7202L102.641 67.7209L102.649 64.503L102.362 64.5023Z" fill="#FFA412"/>
<path d="M99.4597 64.492L99.4521 67.71L99.7389 67.7106L99.7464 64.4927L99.4597 64.492Z" fill="#FFA412"/>
<path d="M96.741 64.4886L96.7334 67.7065L97.0202 67.7072L97.0278 64.4893L96.741 64.4886Z" fill="#FFA412"/>
<path d="M94.3132 64.4818L94.3057 67.6997L94.5924 67.7004L94.6 64.4824L94.3132 64.4818Z" fill="#FFA412"/>
<path d="M109.108 67.7355H109.364L109.356 70.9457H109.643L109.651 67.7277H109.395L109.403 64.5176H109.356L109.364 61.3849H109.403L109.41 58.167H109.124L109.116 61.3772H109.077L109.069 64.5951H109.108V67.7355Z" fill="#FFA412"/>
<path d="M109.724 64.5203L109.718 67.7383L110.005 67.7388L110.01 64.5209L109.724 64.5203Z" fill="#FFA412"/>
<path d="M111.208 64.5951H111.263L111.27 61.3772H111.015C111.03 61.3772 111.038 61.3772 111.053 61.3694L111.061 58.1747C111.022 58.167 110.991 58.167 110.953 58.167H110.774L110.767 61.3849H110.945C110.953 61.3849 110.968 61.3849 110.976 61.3849L110.968 64.5253C110.96 64.5253 110.945 64.5253 110.937 64.5253H110.759L110.751 67.7355H110.596L110.604 64.5253H110.333L110.34 61.3849H110.612L110.619 58.167H110.333L110.325 61.3772H110.054L110.046 64.5951H110.317L110.309 67.7355H110.526L110.519 70.9457H110.805L110.813 67.7355H110.929C110.968 67.7355 110.999 67.7355 111.038 67.7277L111.046 64.5951H111.154L111.146 67.689C111.263 67.6347 111.363 67.5417 111.433 67.4253L111.441 64.8277C111.387 64.7347 111.309 64.6494 111.208 64.5951Z" fill="#FFA412"/>
<path d="M101.323 61.3534L101.316 64.5713L101.603 64.5719L101.61 61.354L101.323 61.3534Z" fill="#FFA412"/>
<path d="M98.6131 61.3499L98.6055 64.5679L98.8922 64.5686L98.8999 61.3506L98.6131 61.3499Z" fill="#FFA412"/>
<path d="M96.1844 61.3441L96.1768 64.562L96.4635 64.5627L96.4711 61.3448L96.1844 61.3441Z" fill="#FFA412"/>
<path d="M111.595 61.3817L111.588 64.5996L111.875 64.6003L111.882 61.3823L111.595 61.3817Z" fill="#FFA412"/>
<path d="M112.185 61.3861L112.178 64.604L112.464 64.6047L112.472 61.3867L112.185 61.3861Z" fill="#FFA412"/>
<path d="M112.627 61.3857L112.619 64.6037H112.797C112.836 64.6037 112.867 64.6037 112.906 64.5959L112.914 61.4012C112.875 61.3935 112.844 61.3935 112.805 61.3935L112.627 61.3857Z" fill="#FFA412"/>
<path d="M113.309 64.2934L113.317 61.6958C113.247 61.5795 113.146 61.4864 113.03 61.4321L113.022 64.557C113.139 64.5027 113.239 64.4097 113.309 64.2934Z" fill="#FFA412"/>
<path d="M107.223 58.1561L107.216 61.374L107.503 61.3747L107.51 58.1568L107.223 58.1561Z" fill="#FFA412"/>
<path d="M106.341 58.1592H106.055L106.047 61.3771H106.117V64.5098H106.047L106.039 67.7277H106.326L106.334 64.5873H106.403L106.411 61.3694H106.334L106.341 58.1592Z" fill="#FFA412"/>
<path d="M104.257 61.3625H104.226L104.218 64.5805H104.257L104.249 67.7209H104.536L104.543 64.5107H104.512V61.3703H104.543L104.551 58.1523H104.264L104.257 61.3625Z" fill="#FFA412"/>
<path d="M102.376 58.1449L102.368 61.3628L102.655 61.3635L102.663 58.1455L102.376 58.1449Z" fill="#FFA412"/>
<path d="M99.4734 58.1424L99.4658 61.3604L99.7526 61.361L99.7602 58.1431L99.4734 58.1424Z" fill="#FFA412"/>
<path d="M96.7555 58.1322L96.7471 61.3501L97.0338 61.3508L97.0422 58.1329L96.7555 58.1322Z" fill="#FFA412"/>
<path d="M94.3261 58.1253L94.3193 61.3433L94.6061 61.3439L94.6129 58.1259L94.3261 58.1253Z" fill="#FFA412"/>
<path d="M109.739 58.1644L109.73 61.3823L110.017 61.3831L110.026 58.1651L109.739 58.1644Z" fill="#FFA412"/>
<path d="M111.17 58.2217L111.162 61.3466C111.278 61.2923 111.379 61.1992 111.449 61.0829L111.457 58.4853C111.387 58.3613 111.286 58.2682 111.17 58.2217Z" fill="#FFA412"/>
<path d="M119.61 66.7905L121.4 67.1084C121.54 67.1317 121.672 67.1937 121.765 67.279C121.865 67.3721 121.943 67.4806 121.974 67.6047C121.982 67.6434 121.989 67.6822 121.989 67.721C121.989 67.7598 121.989 67.7908 121.982 67.8295L117.541 92.7589C117.486 93.0768 117.145 93.2939 116.781 93.2474C116.766 93.2474 116.758 93.2474 116.742 93.2396L114.952 92.9217C114.937 92.9217 114.929 92.9139 114.913 92.9139C114.557 92.8364 114.309 92.5185 114.371 92.1928L118.812 67.2635C118.812 67.248 118.82 67.2325 118.82 67.217C118.82 67.2092 118.82 67.2015 118.827 67.1937C118.827 67.186 118.835 67.1782 118.835 67.1704C118.835 67.1627 118.835 67.1627 118.843 67.1549C118.858 67.1162 118.874 67.0852 118.897 67.0541C118.897 67.0464 118.905 67.0464 118.905 67.0386C118.905 67.0309 118.913 67.0309 118.913 67.0231C118.92 67.0154 118.928 67.0076 118.936 66.9921C118.944 66.9843 118.944 66.9843 118.951 66.9766C118.959 66.9688 118.959 66.9688 118.967 66.9611C118.975 66.9533 118.982 66.9456 118.99 66.9378C118.998 66.9301 119.013 66.9223 119.021 66.9146C119.029 66.9068 119.037 66.8991 119.044 66.8913C119.052 66.8835 119.06 66.8835 119.06 66.8758C119.075 66.8603 119.099 66.8525 119.122 66.8448C119.13 66.8448 119.137 66.837 119.137 66.837C119.145 66.837 119.153 66.8293 119.153 66.8293C119.168 66.8215 119.176 66.8215 119.192 66.8138C119.323 66.7827 119.463 66.7672 119.61 66.7905Z" fill="#FFB93E"/>
<path d="M119.905 79.4756L117.526 92.8358C117.471 93.1227 117.138 93.3088 116.774 93.2546C116.758 93.2546 116.751 93.2546 116.735 93.2468L114.945 92.9289C114.929 92.9289 114.922 92.9211 114.906 92.9211C114.55 92.8436 114.294 92.5567 114.348 92.2698L116.433 80.5534C116.456 80.5534 116.487 80.5534 116.51 80.5534C117.487 80.5224 118.805 80.3053 119.905 79.4756Z" fill="#FFA412"/>
<path d="M118.371 69.7098L118.32 69.9922L121.487 70.5576L121.537 70.2752L118.371 69.7098Z" fill="#FFA412"/>
<path d="M118.203 70.6668L118.152 70.9492L121.319 71.513L121.369 71.2305L118.203 70.6668Z" fill="#FFA412"/>
<path d="M117.998 71.8069L117.947 72.0894L121.114 72.6538L121.164 72.3713L117.998 71.8069Z" fill="#FFA412"/>
<path d="M117.68 73.573L117.63 73.8555L120.796 74.4199L120.847 74.1374L117.68 73.573Z" fill="#FFA412"/>
<path d="M117.35 75.4461L117.3 75.7285L120.466 76.2923L120.517 76.0098L117.35 75.4461Z" fill="#FFA412"/>
<path d="M116.85 78.2991L116.8 78.5815L119.966 79.1463L120.017 78.8638L116.85 78.2991Z" fill="#FFA412"/>
<path d="M116.367 80.9798L116.316 81.2622L119.483 81.826L119.533 81.5435L116.367 80.9798Z" fill="#FFA412"/>
<path d="M115.944 83.3768L115.894 83.6592L119.06 84.2246L119.11 83.9422L115.944 83.3768Z" fill="#FFA412"/>
<path d="M118.534 68.7869L118.483 69.0693L121.65 69.6338L121.7 69.3513L118.534 68.7869Z" fill="#FFA412"/>
<path d="M118.651 68.1897L118.601 68.4722L121.767 69.0369L121.817 68.7545L118.651 68.1897Z" fill="#FFA412"/>
<path d="M118.746 67.596L118.695 67.8784L121.862 68.4428L121.912 68.1604L118.746 67.596Z" fill="#FFA412"/>
<path d="M118.781 67.4491L121.943 68.0151L121.974 67.8368C121.982 67.798 121.982 67.767 121.982 67.7282L118.843 67.1699C118.828 67.2009 118.82 67.2397 118.812 67.2707L118.781 67.4491Z" fill="#FFA412"/>
<path d="M118.897 67.0617L121.967 67.6044C121.936 67.4804 121.866 67.3641 121.757 67.2788L119.2 66.8213C119.076 66.8756 118.967 66.9609 118.897 67.0617Z" fill="#FFA412"/>
<path d="M38.1011 92.8895C37.6671 92.2071 36.365 90.447 34.6367 90.6796C32.7534 90.9355 36.7215 92.1761 37.9383 92.8895C37.6671 92.8895 37.4346 92.874 37.2641 92.8119C36.4503 92.525 35.063 93.0756 34.6135 93.2694H42.3483C42.294 93.0833 42.1545 92.7809 41.798 92.5638C41.674 92.4863 41.4182 92.4785 41.085 92.5018C41.5422 91.959 41.8678 90.2221 40.5812 90.6718C39.6434 90.9975 39.6512 92.0598 39.7364 92.6801C39.5349 92.7111 39.3334 92.7422 39.1396 92.7732C38.7521 90.8114 37.3958 85.0501 34.629 84.9028C31.8311 84.7477 37.0006 90.8734 38.7289 92.8352C38.5119 92.8585 38.3026 92.8817 38.1011 92.8895Z" fill="#82B378"/>
<path d="M114.824 43.9992C119.177 39.6447 119.177 32.5848 114.824 28.2303C110.472 23.8759 103.416 23.8759 99.0632 28.2303C94.7109 32.5848 94.7109 39.6447 99.0632 43.9992C103.416 48.3536 110.472 48.3536 114.824 43.9992Z" fill="#E2810E"/>
<path d="M116.872 39.4149C118.435 33.4587 114.877 27.3623 108.923 25.7981C102.97 24.2339 96.8767 27.7944 95.3132 33.7505C93.7498 39.7067 97.3085 45.8032 103.262 47.3673C109.215 48.9315 115.309 45.3711 116.872 39.4149Z" fill="#FFB93E"/>
<path d="M106.172 46.8546C102.591 46.8546 99.1111 44.9548 97.2665 41.6051C95.9567 39.2323 95.6545 36.4874 96.4062 33.882C97.158 31.2767 98.8863 29.121 101.258 27.8106C103.63 26.5002 106.373 26.1977 108.977 26.9499C111.581 27.702 113.736 29.4312 115.046 31.8039C117.751 36.7123 115.96 42.9 111.054 45.5984C109.504 46.4514 107.83 46.8546 106.172 46.8546ZM106.141 27.1437C104.552 27.1437 102.979 27.547 101.545 28.3379C99.3126 29.5708 97.6928 31.5946 96.9798 34.0449C96.2745 36.4951 96.5612 39.0772 97.7935 41.3104C99.5296 44.4663 102.8 46.2498 106.172 46.2498C107.729 46.2498 109.303 45.8698 110.768 45.0634C115.379 42.5201 117.061 36.7045 114.519 32.0908C113.286 29.8577 111.264 28.2371 108.815 27.5237C107.931 27.2756 107.032 27.1437 106.141 27.1437Z" fill="#FFA412"/>
<path d="M108.799 38.6047C108.714 38.4031 108.613 38.2325 108.497 38.1006C108.373 37.9688 108.226 37.868 108.04 37.7905C107.854 37.7207 107.644 37.6664 107.389 37.6432C107.141 37.6199 106.846 37.6199 106.505 37.6354C105.916 37.6664 105.373 37.6664 104.877 37.6354C104.381 37.6121 103.924 37.5268 103.521 37.3873C103.118 37.2477 102.762 37.0461 102.459 36.7669C102.157 36.4878 101.901 36.1079 101.708 35.6349C101.537 35.2239 101.46 34.8129 101.467 34.4175C101.475 34.0143 101.568 33.6343 101.731 33.2699C101.901 32.9054 102.142 32.572 102.459 32.2541C102.777 31.9439 103.157 31.6648 103.614 31.4321L102.979 29.8736L104.234 29.3618L104.877 30.9436C105.35 30.8196 105.808 30.7731 106.249 30.8041C106.691 30.8351 107.094 30.9436 107.466 31.122C107.838 31.3081 108.171 31.564 108.474 31.8974C108.768 32.2308 109.016 32.6418 109.218 33.1303L106.947 34.053C106.707 33.4715 106.404 33.0838 106.025 32.8977C105.645 32.7116 105.242 32.7116 104.808 32.8899C104.575 32.983 104.381 33.0993 104.242 33.2388C104.095 33.3707 103.994 33.518 103.932 33.6808C103.87 33.8437 103.839 34.0065 103.854 34.1848C103.862 34.3632 103.909 34.5415 103.978 34.7199C104.048 34.8982 104.141 35.0533 104.257 35.1774C104.366 35.3014 104.513 35.4022 104.691 35.472C104.87 35.5418 105.087 35.5883 105.342 35.6116C105.598 35.6349 105.908 35.6426 106.273 35.6271C106.854 35.6116 107.396 35.6193 107.892 35.6504C108.388 35.6814 108.838 35.7667 109.241 35.9062C109.644 36.0458 110 36.2552 110.303 36.5343C110.605 36.8135 110.853 37.1857 111.047 37.6587C111.217 38.0851 111.302 38.5039 111.295 38.8993C111.287 39.3025 111.194 39.6825 111.023 40.0392C110.853 40.3958 110.605 40.7293 110.279 41.0394C109.954 41.3496 109.566 41.621 109.117 41.8536L109.706 43.3036L108.458 43.8076L107.869 42.3654C107.42 42.4972 106.955 42.5747 106.49 42.5903C106.025 42.6058 105.583 42.5437 105.156 42.3964C104.73 42.2491 104.343 42.0009 103.978 41.6598C103.622 41.3186 103.32 40.8533 103.087 40.2718L105.358 39.3491C105.497 39.698 105.66 39.9616 105.854 40.1555C106.048 40.3493 106.249 40.4811 106.466 40.5509C106.683 40.6207 106.908 40.644 107.141 40.6207C107.373 40.5897 107.59 40.5354 107.807 40.4501C108.055 40.3493 108.257 40.233 108.419 40.0934C108.582 39.9539 108.698 39.8065 108.784 39.6437C108.861 39.4809 108.908 39.3103 108.908 39.1319C108.915 38.9691 108.877 38.7908 108.799 38.6047Z" fill="#FFA412"/>
<path d="M117.177 30.1138C116.712 29.7882 115.65 29.0593 115.596 29.2221C115.557 29.3384 115.612 29.5323 115.743 29.7417C115.1 29.5013 114.457 29.3462 112.922 29.6409C112.612 29.7029 112.333 29.8735 112.17 30.1371C112.015 30.3775 111.953 30.6876 112.349 30.928C113.131 31.4165 112.907 31.1219 113.992 31.8353C115.077 32.5486 116.41 32.727 117.208 32.2307L118.278 32.0524L118.409 30.2922C118.409 30.2922 117.797 30.2224 117.177 30.1138Z" fill="#FFB27D"/>
<path d="M145.187 15.3648C145.187 15.3648 142.668 18.3579 139.46 17.1017C139.46 17.1017 138.77 15.4346 138.762 14.2017C138.762 14.0466 138.762 13.907 138.754 13.7675C138.739 12.3795 138.692 11.6041 138.692 11.6041C138.84 11.542 143.598 9.58801 143.591 9.75085C143.513 13.4961 145.187 15.3648 145.187 15.3648Z" fill="#FFB27D"/>
<path d="M143.118 10.6423C142.661 11.4952 141.087 13.1623 138.754 13.7672C138.739 12.3792 138.692 11.6038 138.692 11.6038C138.824 11.565 143.257 10.3864 143.118 10.6423Z" fill="#ED975D"/>
<path d="M137.693 11.4571C137.693 11.4571 143.048 12.7132 143.777 9.37124C144.505 6.02148 145.691 3.93564 142.304 2.98964C138.917 2.04365 137.972 3.17574 137.452 4.23029C136.941 5.28485 136.321 11.0384 137.693 11.4571Z" fill="#FFB27D"/>
<path d="M143.598 10.2783C143.667 10.3248 144.822 10.6815 147 6.33143C147.341 5.64908 147.573 4.1758 146.775 2.86537C145.977 1.56268 143.148 0.539146 140.8 0.0894105C138.451 -0.360325 137.886 0.96562 137.328 2.29932C136.746 3.69505 135.064 4.84265 135.064 4.84265C137.095 5.97475 139.536 4.35415 140.381 4.61778C141.226 4.88142 141.528 6.21512 141.59 6.64935C141.652 7.07582 141.753 7.43251 142.815 7.05256C143.877 6.67261 143.295 8.5646 143.125 8.92129C143.125 8.92904 142.985 9.89055 143.598 10.2783Z" fill="#06202E"/>
<path d="M157.387 93.7429H160.626C161.308 93.7429 162.06 93.0605 162.246 91.8199C162.432 90.5714 163.835 89.8968 164.137 88.8733C164.439 87.8498 162.889 86.4153 162.889 86.4153L162.634 86.0818L162.362 85.7329L159.797 86.3377C159.797 86.3377 159.735 86.9503 159.696 87.7257C159.665 88.2917 159.657 88.9353 159.688 89.5091C159.766 90.8661 159.309 92.3316 158.1 92.5953C156.883 92.8666 157.387 93.7429 157.387 93.7429Z" fill="#2C3A64"/>
<path d="M134.817 93.743H143.405C143.49 93.7274 143.552 93.7119 143.591 93.6887C144.164 93.4018 143.986 91.2074 143.916 90.525C143.901 90.401 143.893 90.3234 143.893 90.3234C143.893 90.3234 140.87 87.9042 140.46 89.7574C140.444 89.8117 140.429 89.8737 140.413 89.928C139.886 91.6571 137.545 92.448 136.189 92.6652C135.158 92.8357 134.887 93.4405 134.817 93.743Z" fill="#2C3A64"/>
<path d="M136.554 44.1786C136.554 44.1786 137.011 49.9089 137.554 56.7867C138.29 66.1381 139.166 77.6219 139.259 79.8008C139.406 83.577 140.01 89.6252 140.01 89.6252C140.01 89.6252 141.444 91.0597 144.312 90.4549C144.312 90.4549 146.869 81.8246 147.598 72.6981C147.606 72.5507 147.621 72.3957 147.629 72.2483C148.311 62.959 149.365 43.3877 149.365 43.3877L136.554 44.1786Z" fill="#06202E"/>
<path d="M136.554 44.1786C136.554 44.1786 137.011 49.9089 137.554 56.7867L147.606 72.6981C147.613 72.5507 147.629 72.3957 147.637 72.2483C148.319 62.959 149.373 43.3877 149.373 43.3877L136.554 44.1786Z" fill="#0D3145"/>
<path d="M138.646 44.8532C138.646 44.8532 146.916 65.5953 152.349 75.3422C157.79 85.089 159.487 87.8107 159.487 87.8107C159.487 87.8107 162.603 86.5623 162.882 85.7171C162.882 85.7171 160.805 66.898 157.162 62.3153C155.108 59.7255 152.69 51.9481 152.574 49.2265C152.465 46.497 151.845 41.1157 151.845 41.1157L138.646 44.8532Z" fill="#06202E"/>
<path d="M157.502 41.0935L157.587 42.4272C157.587 42.4272 156.711 44.7999 159.168 46.0096C159.168 46.0096 160.222 46.436 160.269 45.6141C160.315 44.7922 160.176 45.1023 160.261 43.947C160.346 42.7916 159.889 41.6983 159.13 41.3261L158.502 40.605L157.502 41.0935Z" fill="#FFB27D"/>
<path d="M158.471 42.063C157.556 42.3576 157.409 42.2878 157.409 42.2878C157.409 42.2878 152.953 34.1771 152.503 33.4327C152.054 32.6883 143.048 24.3294 143.048 24.3294L145.365 15.6914C145.365 15.6914 155.611 28.9664 156.719 30.8661C158.548 34.0143 159.618 41.3263 159.618 41.3263C159.618 41.3263 159.184 41.8304 158.471 42.063Z" fill="#047EBD"/>
<path d="M134.809 27.7247C134.84 29.5004 134.941 31.4932 135.08 33.517C135.088 33.6333 135.096 33.7574 135.103 33.8737C135.189 35.1299 135.289 36.386 135.398 37.6112C135.444 38.0997 135.491 38.5882 135.537 39.0689L135.545 39.131C135.545 39.3093 135.568 39.5032 135.592 39.6815C136.041 44.2719 136.514 47.9008 136.607 47.9551C136.715 48.0249 136.832 48.0637 136.956 48.0482C138.157 47.8931 141.753 48.1722 144.691 47.5286C147.171 47.0014 149.31 46.0088 151.573 44.6751C151.875 44.4968 152.557 44.0238 152.503 43.6749C152.449 43.2872 152.348 42.7289 152.216 42.031C151.767 39.5885 150.999 35.3858 150.736 30.4697C150.681 29.5547 150.612 28.6475 150.511 27.7558C150.255 25.4373 149.852 23.2351 149.31 21.2811C148.302 17.6522 146.822 14.8685 144.962 13.7829C144.722 13.6434 143.412 14.4808 142.21 15.2485C141.102 15.9618 139.932 16.1557 138.8 16.0549L137.816 17.156C136.607 18.5594 135.32 20.4359 134.964 23.0956C134.941 23.2894 134.917 23.4988 134.894 23.7237C134.801 24.8092 134.778 26.1817 134.809 27.7247Z" fill="#0398E5"/>
<path d="M134.809 27.7255C134.84 29.5012 134.94 31.494 135.08 33.5178C135.088 33.6341 135.095 33.7582 135.103 33.8745C141.978 29.571 143.04 21.6929 143.04 21.6929C139.66 21.8402 136.971 22.6156 134.902 23.7322C134.801 24.81 134.778 26.1825 134.809 27.7255Z" fill="#047EBD"/>
<path d="M117.433 31.114C117.363 30.0905 117.89 29.9276 117.89 29.9276C117.89 29.9276 128.26 28.0511 129.136 27.772C130.02 27.4929 137.553 19.6535 137.553 19.6535C137.553 19.6535 140.444 16.3968 142.808 17.1179C144.861 17.746 145.668 19.3511 145.939 20.8786C146.264 22.7008 145.427 24.5308 143.846 25.5001C140.312 27.6712 133.228 31.9514 131.554 32.4399C127.842 33.5255 117.867 32.5252 117.867 32.5252C117.867 32.5252 117.487 31.9127 117.433 31.114Z" fill="#0398E5"/>
<path opacity="0.2" d="M129.632 51.0337V89.5869C129.632 91.8355 127.795 93.6733 125.547 93.6733H85.9352C85.5942 93.6733 85.2532 93.6345 84.9354 93.5492C84.2457 93.3786 83.6256 93.0374 83.1219 92.5722C82.7576 92.2388 82.4553 91.851 82.2306 91.4091C82.2151 91.3858 82.2073 91.3625 82.1918 91.3393C81.9516 90.8663 81.8043 90.3313 81.7656 89.7807C81.7578 89.6877 81.7578 89.5869 81.7578 89.4938V51.2818C81.7578 49.1184 82.8739 47.1179 84.6952 45.9547C84.6952 45.9547 84.6952 45.9547 84.7029 45.9547C86.222 44.9855 87.2295 43.2796 87.2295 41.3411C87.2295 40.7673 87.1443 40.2167 86.9738 39.6895H124.416C124.253 40.209 124.16 40.7595 124.16 41.3411C124.16 43.1943 125.082 44.8382 126.5 45.8307C126.593 45.8927 126.694 45.9625 126.787 46.0168C128.547 47.0868 129.632 48.9788 129.632 51.0337Z" fill="#ED9F4A"/>
<path opacity="0.2" d="M129.632 51.0337V89.5869C129.632 91.7425 127.95 93.5182 125.834 93.6655C125.741 93.6733 125.64 93.6733 125.547 93.6733H108.109C105.815 93.6733 103.932 91.789 103.932 89.4938V51.2818C103.932 49.1184 105.048 47.1179 106.869 45.9547C108.388 44.9855 109.396 43.2796 109.396 41.3411C109.396 40.7673 109.31 40.2167 109.14 39.6895H124.416C124.253 40.209 124.16 40.7595 124.16 41.3411C124.16 42.8609 124.78 44.2411 125.78 45.2336C126.082 45.536 126.423 45.7997 126.787 46.0168C128.547 47.0868 129.632 48.9788 129.632 51.0337Z" fill="#ED9F4A"/>
<path opacity="0.6" d="M126.501 45.8307C125.276 45.1018 119.983 42.5042 106.505 42.6127C91.0738 42.7368 84.8891 45.8617 84.6953 45.9547C86.2144 44.9855 87.2219 43.2796 87.2219 41.3411C87.2219 40.7673 87.1367 40.2167 86.9662 39.6895H124.408C124.245 40.209 124.152 40.7595 124.152 41.3411C124.168 43.202 125.09 44.8382 126.501 45.8307Z" fill="#ED9F4A"/>
<path d="M125.268 39.4254V41.1778C125.268 41.3484 125.129 41.488 124.958 41.488H86.4389C86.2684 41.488 86.1289 41.3484 86.1289 41.1778V39.4254C86.1289 39.2548 86.2684 39.1152 86.4389 39.1152H124.958C125.121 39.1152 125.268 39.2548 125.268 39.4254Z" fill="#2B478B"/>
<path d="M125.269 39.4254V41.1778C125.269 41.3484 125.129 41.488 124.959 41.488H110.38C110.21 41.488 110.07 41.3484 110.07 41.1778V39.4254C110.07 39.2548 110.21 39.1152 110.38 39.1152H124.951C125.121 39.1152 125.269 39.2548 125.269 39.4254Z" fill="#233862"/>
<path d="M99.5677 48.0864C99.5677 48.0864 98.5756 49.4822 97.6611 49.5054C96.7543 49.5287 95.367 48.8541 95.367 48.8541C95.367 48.8541 94.53 46.9931 95.0957 46.2642C95.0957 46.2642 95.6615 46.0161 96.2583 46.4581C96.359 46.5356 96.4675 46.6287 96.5683 46.7527C96.7155 46.9233 96.8706 47.0241 97.0488 47.0784C97.6998 47.2723 98.4671 46.8148 98.7539 47.2568C98.9244 47.5204 99.1026 47.7143 99.2577 47.8538C99.4359 48.0012 99.5677 48.0864 99.5677 48.0864Z" fill="#F9DDBF"/>
<path d="M86.625 58.1666C86.625 58.1666 90.1359 49.6604 96.4524 49.4976C96.4524 49.4976 102.281 50.1489 102.606 58.1666H86.625Z" fill="#F9DDBF"/>
<path d="M94.7241 49.7616C94.7241 49.7616 97.2584 50.3276 98.0334 49.9942C98.0334 49.9942 98.1497 48.9319 97.0879 49.087C96.3594 49.1878 95.8866 48.8389 95.5998 48.6993C95.2046 48.4899 94.6155 49.3196 94.7241 49.7616Z" fill="#F1A34F"/>
<path d="M96.9254 48.1638C96.7626 48.2879 96.2666 46.4502 96.2666 46.4502C96.3674 46.5277 96.4759 46.6208 96.5766 46.7448C96.7239 46.9154 96.8789 47.0162 97.0571 47.0705C97.0494 47.1248 97.0804 48.0475 96.9254 48.1638Z" fill="#E5C1A1"/>
<path d="M99.2576 47.8456C99.2188 47.8689 98.0485 48.5667 97.8935 48.5667C97.7308 48.5667 98.7538 47.2485 98.7538 47.2485C98.9243 47.5122 99.1103 47.706 99.2576 47.8456Z" fill="#E5C1A1"/>
<path d="M90.0509 55.7942C89.9889 55.7399 92.531 52.0413 93.2363 52.0102C93.9416 51.987 95.5149 52.8167 96.6542 52.9252C97.7935 53.0338 98.9018 52.7081 99.1188 53.3827C99.3358 54.0573 99.9248 56.4533 99.5606 56.8333C99.2041 57.221 91.4537 56.9884 90.0509 55.7942Z" fill="#E5C1A1"/>
<path opacity="0.5" d="M87.214 90.7656C87.0125 90.8741 86.8033 90.9749 86.6018 91.068C86.408 91.1843 86.2065 91.2928 86.005 91.4014C85.0672 91.8899 84.1062 92.2854 83.1219 92.58C82.7576 92.2466 82.4553 91.8589 82.2306 91.4169C82.0756 91.5022 81.9206 91.5797 81.7578 91.6573V62.5718C82.4786 62.6648 83.1916 62.8122 83.8969 62.9983C87.8263 64.0606 91.3217 66.5574 93.453 70.2405C97.6692 77.5449 94.8791 86.7335 87.214 90.7656Z" fill="#E2810E"/>
<path d="M89.8719 69.0935C85.648 61.4247 76.0066 58.6333 68.3415 62.8592C60.6764 67.0852 57.8863 76.7313 62.1102 84.4C66.3342 92.0688 75.9756 94.8603 83.6406 90.6343C91.3057 86.4083 94.0958 76.77 89.8719 69.0935Z" fill="#E2810E"/>
<path d="M83.0288 90.9603C82.835 91.0766 82.6335 91.193 82.432 91.3093C82.3623 91.348 82.2925 91.3868 82.2305 91.4178C82.0755 91.5031 81.9205 91.5807 81.7577 91.6582C74.2089 95.3646 65.0015 92.5189 60.9016 85.075C56.9877 77.9723 59.088 69.1714 65.5131 64.55C66.0246 64.1778 66.5671 63.8366 67.1329 63.5265C67.3344 63.4179 67.5436 63.3093 67.7452 63.2085C67.9467 63.1077 68.1482 63.0147 68.3497 62.9216C68.9697 62.6425 69.5975 62.4099 70.2408 62.2238C71.1863 61.9369 72.1473 61.743 73.1084 61.6422C76.0922 61.3243 79.0994 61.8748 81.7655 63.1775C84.5944 64.5577 87.0357 66.7987 88.671 69.7607C92.7787 77.2356 90.2443 86.5715 83.0288 90.9603Z" fill="#FFB93E"/>
<path d="M74.8905 92.0377C73.5419 92.0377 72.1856 91.8439 70.8603 91.4639C67.1556 90.3939 64.0865 87.9358 62.2264 84.5628C60.3663 81.182 59.9323 77.2817 61.0019 73.5753C62.0714 69.8688 64.5283 66.7982 67.8997 64.9373C71.2788 63.0763 75.1772 62.6421 78.8819 63.7121C82.5865 64.7822 85.6556 67.2402 87.5157 70.6132C89.3758 73.9863 89.8098 77.8943 88.7403 81.6007C87.6707 85.3072 85.2139 88.3778 81.8425 90.2388C79.6802 91.4329 77.293 92.0377 74.8905 92.0377ZM62.9782 84.1441C64.7298 87.3232 67.6129 89.6262 71.1005 90.6342C74.5882 91.6423 78.2541 91.2313 81.4317 89.4789C84.6094 87.7265 86.9112 84.8419 87.9187 81.3526C88.9263 77.8633 88.5155 74.1956 86.7639 71.0164C85.0124 67.8373 82.1293 65.5343 78.6416 64.5263C75.154 63.5183 71.4881 63.9292 68.3104 65.6817C65.1328 67.4341 62.831 70.3186 61.8234 73.8079C60.8159 77.2972 61.2266 80.9649 62.9782 84.1441Z" fill="#FFA412"/>
<path d="M81.8587 78.9648C81.8277 78.8872 81.7967 78.8097 81.758 78.7399C81.5022 78.1739 81.1767 77.7164 80.7969 77.3674C80.3629 76.972 79.8592 76.6773 79.2856 76.4757C78.7121 76.2741 78.0688 76.1578 77.3635 76.1113C76.6583 76.0648 75.8832 76.057 75.0539 76.0803C74.5424 76.0958 74.1007 76.088 73.7364 76.057C73.3721 76.026 73.0621 75.9562 72.8064 75.8554C72.5506 75.7546 72.3491 75.615 72.1863 75.4367C72.0313 75.2583 71.8996 75.0412 71.7911 74.7853C71.6826 74.5294 71.6283 74.2736 71.6128 74.0254C71.5973 73.7773 71.6361 73.5369 71.7291 73.3121C71.8221 73.0872 71.9693 72.8778 72.1708 72.684C72.3723 72.4901 72.6436 72.3273 72.9769 72.1955C73.5969 71.9473 74.1704 71.9473 74.7052 72.211C75.24 72.4746 75.674 73.0174 76.015 73.8471L79.2469 72.5366C78.9679 71.8465 78.6113 71.2572 78.1928 70.7842C77.7666 70.3112 77.2938 69.939 76.759 69.6754C76.232 69.4118 75.6507 69.2644 75.023 69.2179C74.3952 69.1714 73.7441 69.2412 73.0776 69.4195L72.1631 67.1631L70.3728 67.892L71.2718 70.1174C70.6285 70.4508 70.0782 70.8385 69.6287 71.2882C69.1792 71.7302 68.8382 72.211 68.5979 72.7305C68.3577 73.25 68.2337 73.7928 68.2182 74.3589C68.2027 74.9249 68.3189 75.5065 68.5592 76.0958C68.8382 76.7781 69.187 77.3132 69.621 77.7086C70.055 78.1041 70.5588 78.3987 71.1323 78.5926C71.7058 78.7864 72.3491 78.9027 73.0544 78.9415C73.7674 78.9803 74.5347 78.9803 75.3717 78.9415C75.8522 78.9105 76.2785 78.9183 76.635 78.9493C76.9915 78.9803 77.3015 79.0501 77.5573 79.1509C77.8131 79.2594 78.0301 79.399 78.2006 79.5928C78.3711 79.7789 78.5183 80.0193 78.6346 80.314C78.7354 80.5699 78.7896 80.8258 78.7896 81.0816C78.7896 81.3375 78.7353 81.5779 78.6191 81.8105C78.5028 82.0431 78.3323 82.2602 78.1076 82.4541C77.8828 82.648 77.5883 82.8185 77.2395 82.9659C76.9373 83.0899 76.6195 83.1752 76.294 83.214C75.9685 83.2528 75.6507 83.2218 75.3407 83.1209C75.0307 83.0201 74.7362 82.8263 74.4649 82.5549C74.1937 82.2835 73.9612 81.9036 73.7596 81.4073L70.5278 82.7177C70.861 83.5474 71.2873 84.2065 71.7988 84.695C72.3103 85.1835 72.8684 85.5325 73.4729 85.7418C74.0774 85.9512 74.7129 86.0442 75.3717 86.0132C76.0305 85.99 76.6893 85.8814 77.3325 85.6876L78.1696 87.7424L79.9444 87.0212L79.1074 84.9587C79.7506 84.6252 80.3087 84.2375 80.7659 83.8033C81.1922 83.4001 81.5255 82.9659 81.7657 82.4929C81.789 82.4541 81.8045 82.4153 81.82 82.3766C82.0602 81.8648 82.192 81.3298 82.2075 80.756C82.2152 80.1666 82.1067 79.5773 81.8587 78.9648Z" fill="#FFA412"/>
<path d="M63.0019 21.5917C63.0485 21.3978 58.778 23.5224 58.561 23.7628C56.5614 25.9882 57.1272 28.8882 58.2743 28.9115C59.0105 28.927 58.8633 30.1521 58.8633 30.1521L67.0476 26.6861C67.0554 26.6861 66.0711 20.9326 63.0019 21.5917Z" fill="#06202E"/>
<path d="M64.0098 22.0414C64.0098 22.0414 64.3043 18.8467 60.7392 18.8467C60.7392 18.8467 61.8165 19.1413 62.3745 19.7229C62.3745 19.7229 60.1037 18.3892 57.6313 20.4363C55.159 22.4911 56.6935 27.632 55.9417 28.609C55.19 29.5861 52.2603 29.7799 52.6169 32.9436C52.9734 36.0995 61.9172 40.0618 61.336 42.6749C61.336 42.6749 64.8391 37.5262 62.3358 35.169C62.3358 35.169 63.5603 36.3166 63.6843 37.6891C63.6843 37.6891 64.0176 35.0217 62.3203 34.1687C60.8167 33.4166 59.5844 30.6484 59.7162 30.1521C59.8479 29.6558 64.0098 22.0414 64.0098 22.0414Z" fill="#06202E"/>
<path d="M60.7776 37.0529C60.2274 34.4087 56.794 33.5868 55.1742 35.7502C54.8797 36.1379 54.6781 36.5954 54.6084 37.1382C54.2364 40.1468 59.0416 52.3827 59.7314 53.4915C60.9869 55.5076 68.3575 62.4242 68.3575 62.4242L69.7138 61.6023C69.7138 61.6023 64.4823 52.7471 63.6763 51.9174C62.7385 50.9559 61.8162 42.0775 60.7776 37.0529Z" fill="#ED985F"/>
<path d="M67.8379 61.6023C67.8379 61.6023 69.822 60.2996 70.5738 60.3849C71.3255 60.4702 73.4956 61.0983 73.5266 61.4162C73.5499 61.7341 71.1085 61.9357 70.938 62.1063C70.7753 62.2846 69.1089 63.3935 68.5122 63.0445C67.8999 62.6956 67.8379 61.6023 67.8379 61.6023Z" fill="#ED985F"/>
<path d="M54.0035 91.0373L52.2287 90.7737C52.2287 90.7737 46.2687 86.036 45.3851 77.1963C45.2921 76.2969 45.2766 75.3819 45.3464 74.4669C45.3541 74.3583 45.3386 74.2575 45.2844 74.1645C45.0906 73.8698 44.6178 73.141 43.9746 72.0942C43.339 71.0706 42.254 69.1244 41.0682 66.9455C38.9214 63.0219 36.418 58.3307 35.5577 56.8419C32.8219 52.0809 34.1394 48.8785 34.1394 48.8785C34.1394 48.8785 41.7657 48.1263 43.8506 46.2964L44.6023 47.4595C44.6023 47.4595 46.2532 54.7793 46.1757 54.8103C46.2532 55.0585 46.3384 55.3144 46.4237 55.5703C47.7257 59.5946 49.2293 64.627 50.0431 68.7289C50.5003 71.0319 50.7484 73.0479 50.6166 74.4126C50.5701 74.8856 50.6243 75.6068 50.7484 76.4985C51.4924 81.748 54.0035 91.0373 54.0035 91.0373Z" fill="#2B478B"/>
<path d="M57.716 93.2776H50.3222C50.3222 93.2776 50.1439 92.1532 50.5314 91.2925C50.9035 90.4706 51.4305 90.4473 50.6012 89.1602C51.074 89.6409 52.5775 89.8425 53.6471 89.7029C53.7788 89.9123 54.4919 91.3391 54.9259 91.657C55.4141 92.0059 57.5687 91.8818 57.716 93.2776Z" fill="#233862"/>
<path d="M46.4236 55.5771C45.7803 59.1363 44.2535 65.0681 41.0604 66.9601C38.9135 63.0366 36.4102 58.3453 35.5499 56.8566C32.814 52.0956 34.1316 48.8931 34.1316 48.8931C34.1316 48.8931 41.7579 48.141 43.8428 46.311L44.5945 47.4741C44.5945 47.4741 46.2454 54.794 46.1678 54.825C46.2609 55.0654 46.3461 55.3135 46.4236 55.5771Z" fill="#233862"/>
<path d="M59.9871 35.4092C59.9871 35.4092 61.0334 36.4947 61.5061 37.7974C61.5061 37.7974 59.8398 42.5894 55.9414 43.1865C55.9414 43.1865 59.026 35.4092 59.9871 35.4092Z" fill="#F0575B"/>
<path d="M41.2386 49.4364L41.2619 48.0562C38.5105 48.4052 31.7677 44.7607 31.7677 44.7607C31.7677 44.7607 28.8846 46.676 28.4894 52.1581C28.2956 54.8333 27.0788 66.1387 26.947 69.5117C26.9005 70.7369 26.885 71.6053 26.8773 71.9542C26.8773 72.0628 26.823 72.1559 26.761 72.2411C26.1875 72.9623 25.6992 73.7299 25.2652 74.5286C21.0646 82.3524 23.2579 92.9833 23.2579 92.9833L24.2344 92.7351C24.2344 92.7351 27.7918 81.7166 30.1092 76.9479C30.5044 76.1414 30.861 75.5134 31.1632 75.1489C32.039 74.0866 32.9613 72.2877 33.8681 70.1165C35.5809 66.0146 37.2472 60.6023 38.4408 56.4151C38.526 56.4229 41.2386 49.4364 41.2386 49.4364Z" fill="#2B478B"/>
<path d="M57.3599 40.2013C52.857 39.17 55.7324 32.8349 55.9959 32.9512C56.6159 32.8271 57.9877 31.7261 59.2123 29.5859L59.375 29.7333L62.1419 32.1603C62.1419 32.1603 61.5064 33.1063 60.9638 34.029C60.5453 34.7501 60.1888 35.4635 60.2431 35.7116C60.4756 35.8822 58.5612 40.4804 57.3599 40.2013Z" fill="#FFB27D"/>
<path d="M62.1498 32.1599C62.1498 32.1599 61.5065 33.1059 60.9718 34.0287C59.2512 32.9664 59.2512 30.8417 59.383 29.7329L62.1498 32.1599Z" fill="#ED985F"/>
<path d="M62.2266 33.3699C62.2266 33.3699 58.0492 31.0437 59.5372 28.4693C61.0253 25.8872 61.4903 23.8557 64.2184 25.2281C66.9466 26.6006 66.8923 27.88 66.6055 28.8648C66.3188 29.8495 63.3504 33.9127 62.2266 33.3699Z" fill="#FFB27D"/>
<path d="M67.3114 27.3613C67.1177 26.2137 66.5364 26.1052 66.1334 26.1827C64.5911 23.6316 62.0722 24.6241 62.0722 24.6241C60.7237 26.3145 58.7783 26.6014 58.7783 26.6014C58.7783 26.6014 59.2666 27.5009 61.2584 28.0592C61.8707 28.2298 62.5605 28.129 63.227 27.9041C61.8397 28.6795 60.3904 28.9742 60.3904 28.9742C63.0177 29.2146 65.5211 26.8108 65.7846 26.5549C65.9086 26.9271 66.1179 27.7103 65.9939 28.2763C65.8234 29.0517 65.1336 30.4552 65.5521 30.6413C65.5521 30.6413 67.5982 29.075 67.3114 27.3613Z" fill="#06202E"/>
<path d="M29.1408 93.2781H21.747C21.747 93.2781 21.5687 92.1538 21.9562 91.2931C22.3283 90.4712 22.9095 90.099 22.77 89.1064C23.2428 89.5872 24.0023 90.13 25.0719 89.9904C25.2036 90.1998 25.9167 91.3396 26.3507 91.6575C26.8389 92.0065 28.9935 91.8824 29.1408 93.2781Z" fill="#233862"/>
<path d="M57.8949 45.2256C56.9417 45.559 55.6086 45.7374 54.2445 45.8847C52.2992 46.094 50.2919 46.2414 49.2456 46.6601C48.8658 46.8152 48.6023 47.0013 48.5248 47.2417C48.0675 48.6141 46.0602 50.731 46.0602 50.731C33.1869 50.1417 31.7764 44.7604 31.7764 44.7604C40.4335 34.6801 55.0971 31.7645 55.0971 31.7645C55.0971 31.7645 56.1434 31.3226 58.7785 33.4162C60.5378 34.8196 60.3053 35.3547 60.3053 35.3547C60.3053 35.3547 60.6928 44.2486 57.8949 45.2256Z" fill="#FF696D"/>
<path d="M54.2442 45.8849C52.2989 46.0943 50.2916 46.2416 49.2453 46.6603C48.819 40.24 51.8417 35.4092 51.8417 35.4092C51.8417 35.4092 53.818 43.4579 54.2442 45.8849Z" fill="#F0575B"/>
<path d="M56.2436 34.1685C56.2436 34.1685 51.3686 34.6492 50.9811 37.8206C50.5936 40.9843 55.6545 53.887 56.3753 55.0579C57.6929 57.1825 65.4664 64.4713 65.4664 64.4713L66.9003 63.6029C66.9003 63.6029 61.3898 54.267 60.5372 53.3985C59.1887 52.0183 57.8866 35.2618 56.2436 34.1685Z" fill="#FFB27D"/>
<path d="M51.1205 39.7204C51.136 39.7902 55.6157 41.1859 58.4988 39.7204C58.4988 39.7204 59.1188 33.0597 55.6699 33.4241C52.2288 33.7885 50.1827 34.8741 50.0975 36.518C50.0122 38.1696 51.1205 39.7204 51.1205 39.7204Z" fill="#FF696D"/>
<path d="M65.0166 63.5411C65.0166 63.5411 66.7604 61.936 67.52 61.8973C68.2717 61.8585 70.5193 62.1299 70.5968 62.44C70.6743 62.7502 68.2872 63.3395 68.1555 63.5411C68.0237 63.7427 66.5589 65.1074 65.9079 64.8593C65.2646 64.6034 65.0166 63.5411 65.0166 63.5411Z" fill="#FFB27D"/>
<path d="M174.804 93.7822H0.196008C0.0878665 93.7822 0 93.6814 0 93.5573V93.4798C0 93.3557 0.0878665 93.2549 0.196008 93.2549H174.804C174.912 93.2549 175 93.3557 175 93.4798V93.5573C175.006 93.6814 174.912 93.7822 174.804 93.7822Z" fill="#2E3552"/>
</svg>
