<svg width="18" height="18" viewBox="0 0 18 18" fill="none" xmlns="http://www.w3.org/2000/svg">
<path fill-rule="evenodd" clip-rule="evenodd" d="M8.88341 16.246C6.11455 16.246 3.75 15.8151 3.75 14.0895C3.75 12.364 6.09955 10.771 8.88341 10.771C11.6523 10.771 14.0168 12.3485 14.0168 14.0741C14.0168 15.799 11.6673 16.246 8.88341 16.246Z" stroke="#0398E5" stroke-width="1.5" stroke-linecap="round" stroke-linejoin="round"/>
<path fill-rule="evenodd" clip-rule="evenodd" d="M8.87788 8.38003C10.6949 8.38003 12.1676 6.9073 12.1676 5.09026C12.1676 3.27321 10.6949 1.7998 8.87788 1.7998C7.06083 1.7998 5.58742 3.27321 5.58742 5.09026C5.58129 6.90117 7.04379 8.3739 8.85469 8.38003C8.86288 8.38003 8.87038 8.38003 8.87788 8.38003Z" stroke="#0398E5" stroke-width="1.5" stroke-linecap="round" stroke-linejoin="round"/>
</svg>
