<svg width="16" height="17" viewBox="0 0 16 17" fill="none" xmlns="http://www.w3.org/2000/svg">
<path d="M7.64779 5.66699C7.08741 5.66699 6.53961 5.83316 6.07367 6.1445C5.60773 6.45583 5.24458 6.89833 5.03013 7.41606C4.81568 7.93378 4.75957 8.50347 4.8689 9.05308C4.97822 9.60269 5.24807 10.1075 5.64432 10.5038C6.04057 10.9 6.54542 11.1699 7.09503 11.2792C7.64465 11.3885 8.21433 11.3324 8.73206 11.118C9.24978 10.9035 9.69229 10.5404 10.0036 10.0744C10.3149 9.6085 10.4811 9.06071 10.4811 8.50033C10.4811 7.74888 10.1826 7.02821 9.65126 6.49686C9.1199 5.9655 8.39924 5.66699 7.64779 5.66699ZM7.64779 9.91699C7.3676 9.91699 7.0937 9.83391 6.86073 9.67824C6.62776 9.52258 6.44618 9.30132 6.33896 9.04246C6.23173 8.7836 6.20368 8.49875 6.25834 8.22395C6.313 7.94914 6.44793 7.69672 6.64605 7.49859C6.84418 7.30047 7.0966 7.16554 7.37141 7.11088C7.64622 7.05622 7.93106 7.08427 8.18992 7.1915C8.44879 7.29872 8.67004 7.4803 8.8257 7.71327C8.98137 7.94624 9.06446 8.22014 9.06446 8.50033C9.06446 8.87605 8.9152 9.23638 8.64952 9.50206C8.38385 9.76774 8.02351 9.91699 7.64779 9.91699Z" fill="#0398E5"/>
<path d="M14.2309 9.84583L13.9164 9.6645C14.058 8.89415 14.058 8.10444 13.9164 7.33408L14.2309 7.15275C14.4727 7.01322 14.6847 6.82742 14.8548 6.60596C15.0248 6.3845 15.1496 6.13171 15.222 5.86204C15.2943 5.59236 15.3128 5.31107 15.2765 5.03424C15.2401 4.7574 15.1496 4.49043 15.0101 4.24858C14.8705 4.00673 14.6847 3.79473 14.4633 3.62469C14.2418 3.45464 13.989 3.32988 13.7193 3.25753C13.4497 3.18517 13.1684 3.16665 12.8915 3.203C12.6147 3.23936 12.3477 3.32989 12.1059 3.46942L11.7907 3.65146C11.1954 3.14282 10.5112 2.74851 9.77264 2.48837V2.125C9.77264 1.56141 9.54876 1.02091 9.15025 0.622398C8.75173 0.223883 8.21123 0 7.64764 0C7.08406 0 6.54356 0.223883 6.14504 0.622398C5.74653 1.02091 5.52264 1.56141 5.52264 2.125V2.48837C4.78413 2.74944 4.1002 3.14472 3.50531 3.65429L3.18869 3.47083C2.70025 3.18904 2.11987 3.11282 1.57523 3.25894C1.03059 3.40507 0.566312 3.76156 0.284519 4.25C0.00272644 4.73844 -0.0734924 5.31882 0.0726297 5.86345C0.218752 6.40809 0.575245 6.87237 1.06369 7.15417L1.37819 7.3355C1.2366 8.10585 1.2366 8.89556 1.37819 9.66592L1.06369 9.84725C0.575245 10.129 0.218752 10.5933 0.0726297 11.138C-0.0734924 11.6826 0.00272644 12.263 0.284519 12.7514C0.566312 13.2399 1.03059 13.5964 1.57523 13.7425C2.11987 13.8886 2.70025 13.8124 3.18869 13.5306L3.50389 13.3485C4.09944 13.8573 4.78384 14.2516 5.52264 14.5116V14.875C5.52264 15.4386 5.74653 15.9791 6.14504 16.3776C6.54356 16.7761 7.08406 17 7.64764 17C8.21123 17 8.75173 16.7761 9.15025 16.3776C9.54876 15.9791 9.77264 15.4386 9.77264 14.875V14.5116C10.5112 14.2506 11.1951 13.8553 11.79 13.3457L12.1066 13.5285C12.595 13.8103 13.1754 13.8865 13.7201 13.7403C14.2647 13.5942 14.729 13.2377 15.0108 12.7493C15.2926 12.2609 15.3688 11.6805 15.2227 11.1358C15.0765 10.5912 14.72 10.1269 14.2316 9.84513L14.2309 9.84583ZM12.4261 7.17117C12.6659 8.04034 12.6659 8.95825 12.4261 9.82742C12.3842 9.9787 12.3937 10.1396 12.4532 10.2849C12.5127 10.4301 12.6188 10.5515 12.7547 10.63L13.5226 11.0734C13.6853 11.1673 13.8041 11.3221 13.8528 11.5036C13.9015 11.6851 13.8761 11.8785 13.7822 12.0413C13.6882 12.2041 13.5335 12.3229 13.352 12.3716C13.1704 12.4203 12.977 12.3948 12.8142 12.3009L12.045 11.8561C11.9089 11.7773 11.7505 11.746 11.5947 11.7671C11.4388 11.7883 11.2945 11.8607 11.1844 11.973C10.5539 12.6166 9.75959 13.0758 8.88723 13.3011C8.73496 13.3402 8.60004 13.4289 8.50373 13.5532C8.40742 13.6775 8.35519 13.8302 8.35527 13.9875V14.875C8.35527 15.0629 8.28064 15.243 8.1478 15.3759C8.01497 15.5087 7.8348 15.5833 7.64694 15.5833C7.45907 15.5833 7.27891 15.5087 7.14607 15.3759C7.01323 15.243 6.9386 15.0629 6.9386 14.875V13.9882C6.93868 13.8309 6.88645 13.6782 6.79014 13.5539C6.69383 13.4296 6.55891 13.3409 6.40664 13.3018C5.53422 13.0756 4.74017 12.6154 4.11023 11.9708C4.0001 11.8586 3.85575 11.7862 3.69993 11.765C3.54411 11.7439 3.38568 11.7751 3.2496 11.854L2.48177 12.2981C2.40118 12.3453 2.31204 12.3762 2.21949 12.3888C2.12694 12.4015 2.03279 12.3957 1.94248 12.3718C1.85217 12.3479 1.76747 12.3064 1.69327 12.2497C1.61906 12.193 1.55681 12.1221 1.5101 12.0412C1.46339 11.9603 1.43315 11.871 1.42111 11.7783C1.40907 11.6857 1.41547 11.5916 1.43995 11.5014C1.46442 11.4113 1.50649 11.3269 1.56372 11.253C1.62096 11.1792 1.69223 11.1174 1.77344 11.0712L2.54127 10.6278C2.67723 10.5494 2.78329 10.428 2.84278 10.2827C2.90227 10.1375 2.91182 9.97657 2.86994 9.82529C2.63006 8.95612 2.63006 8.03821 2.86994 7.16904C2.91107 7.01808 2.90106 6.85775 2.84147 6.71308C2.78189 6.56841 2.67608 6.44754 2.54056 6.36933L1.77273 5.92592C1.60995 5.83199 1.49114 5.67724 1.44246 5.49571C1.39377 5.31419 1.41919 5.12076 1.51312 4.95798C1.60705 4.7952 1.7618 4.6764 1.94333 4.62771C2.12485 4.57903 2.31828 4.60444 2.48106 4.69837L3.25031 5.14321C3.38601 5.2222 3.54411 5.25386 3.69977 5.23322C3.85542 5.21257 3.99981 5.1408 4.11023 5.02917C4.74071 4.38553 5.53499 3.92631 6.40735 3.70104C6.56009 3.66177 6.69536 3.57266 6.79172 3.44781C6.88808 3.32297 6.94002 3.16954 6.93931 3.01183V2.125C6.93931 1.93714 7.01394 1.75697 7.14678 1.62413C7.27962 1.49129 7.45978 1.41667 7.64764 1.41667C7.83551 1.41667 8.01567 1.49129 8.14851 1.62413C8.28135 1.75697 8.35598 1.93714 8.35598 2.125V3.01183C8.3559 3.16905 8.40813 3.32183 8.50444 3.4461C8.60075 3.57037 8.73567 3.65906 8.88794 3.69821C9.76061 3.92427 10.5549 4.3845 11.1851 5.02917C11.2952 5.14141 11.4395 5.21382 11.5954 5.23498C11.7512 5.25615 11.9096 5.22485 12.0457 5.14604L12.8135 4.70192C12.8941 4.65467 12.9832 4.62384 13.0758 4.61118C13.1684 4.59853 13.2625 4.6043 13.3528 4.62818C13.4431 4.65206 13.5278 4.69356 13.602 4.75031C13.6762 4.80705 13.7385 4.87791 13.7852 4.95881C13.8319 5.03971 13.8621 5.12905 13.8742 5.22168C13.8862 5.31432 13.8798 5.40842 13.8553 5.49857C13.8309 5.58873 13.7888 5.67314 13.7316 5.74697C13.6743 5.8208 13.6031 5.88258 13.5219 5.92875L12.754 6.37217C12.6188 6.45058 12.5132 6.57155 12.4539 6.7162C12.3946 6.86085 12.3848 7.02107 12.4261 7.17188V7.17117Z" fill="#0398E5"/>
</svg>
