<svg width="33" height="34" viewBox="0 0 33 34" fill="none" xmlns="http://www.w3.org/2000/svg">
<circle cx="16.42" cy="17.0987" r="16.42" fill="#176A15"/>
<g clip-path="url(#clip0_0_5277)">
<path d="M19.5218 24.1558C14.0037 24.1558 9.52959 19.5109 9.52959 13.7844C9.52604 10.5026 10.9961 7.57904 13.2864 5.67871C9.04312 7.22821 6 11.4236 6 16.3608C6 22.6099 10.8825 27.6787 16.9084 27.6787C21.4642 27.6787 25.3701 24.7771 27 20.6584C25.1677 22.8036 22.4975 24.1558 19.5218 24.1558Z" fill="white"/>
<path d="M25.4589 13.2031L22.7957 12.5819L21.4606 15.0487L21.1943 12.2237L18.5204 11.6573L21.0203 10.5281L20.7042 7.71045L22.5152 9.83736L24.9902 8.66427L23.6124 11.1091L25.4589 13.2031Z" fill="white"/>
</g>
<defs>
<clipPath id="clip0_0_5277">
<rect width="21" height="22" fill="white" transform="translate(6 5.67871)"/>
</clipPath>
</defs>
</svg>
